<?xml version="1.0" encoding="utf-8" ?>
<svg xmlns="http://www.w3.org/2000/svg" xmlns:xlink="http://www.w3.org/1999/xlink" width="512" height="512">
	<path transform="scale(0.666667 0.666667)" d="M387.852 172.688C388.22 172.656 388.579 172.742 388.944 172.796C393.458 178.081 391.891 187.703 395.609 193.688C396.673 195.4 398.133 197.314 400.32 197.516C402.804 197.745 405.755 197.059 408.268 196.883C411.913 196.628 415.644 196.717 419.294 196.842C430.696 197.232 442.147 198.238 453.516 199.199C468.299 200.45 483.14 201.705 497.625 205.151C508.64 207.771 521.417 213.156 527.57 223.232C529.175 225.861 530.922 228.436 532.202 231.248C533.682 234.498 534.53 237.865 535.52 241.268L538.727 256.23C542.036 256.507 545.109 257.505 547.978 259.186C553.298 262.302 557.766 268.469 559.311 274.44C560.164 277.738 560.758 280.859 561.101 284.246C556.109 287.129 551.086 289.797 545.479 291.286C545.206 291.359 542.771 291.889 542.697 291.987C542.463 292.296 542.511 296.03 542.474 296.65C542.184 301.516 541.702 306.834 540.993 311.644C536.996 338.754 533.321 365.93 529.091 393C523.765 427.083 517.386 461.012 511.688 495.036C509.692 506.948 507.601 518.835 505.557 530.743C503.43 543.14 501.615 555.721 498.158 567.842C496.84 572.463 495.23 577.447 491.691 580.867C485.568 586.783 475.145 588.363 467.143 590.031C438.635 595.976 409.855 597.61 380.812 597.488C354.057 597.508 327.403 595.968 301.117 590.762C294.464 589.445 286.431 588.325 280.797 584.331C276.326 581.162 273.601 576.537 271.857 571.444C267.765 559.493 265.788 546.353 263.775 533.919C261.925 522.489 259.966 511.031 257.887 499.641C253.13 473.578 249.131 447.386 244.478 421.312C239.011 390.682 234.084 359.839 229.529 329.062C228.149 319.738 226.937 310.414 225.733 301.07C225.379 298.33 225.701 295.311 225.048 292.639C224.763 291.475 223.66 291.643 222.611 291.394C216.736 290.003 211.672 287.249 206.496 284.237C207.377 276.312 209.256 269.838 214.429 263.59C219.199 257.829 224.939 256.934 231.971 256.4C234.52 245.282 237.272 234.07 243.667 224.438C244.786 222.753 246.075 221.184 247.452 219.702C253.042 213.681 259.98 209.594 267.681 206.905C274.712 204.449 282.328 203.342 289.688 202.509C296.832 201.701 303.921 200.728 311.092 200.079C315.128 199.713 319.181 199.655 323.216 199.339C331.017 198.729 338.874 197.71 346.688 197.336C350.042 197.175 353.419 197.367 356.778 197.213C360.095 197.06 364.591 197.2 367.749 196.333C374.674 194.431 380.147 187.274 383.317 181.125C384.708 178.427 385.811 174.949 387.852 172.688ZM471.403 309.02C454.615 310.917 437.584 311.799 420.728 312.958C416.056 313.28 411.354 313.683 406.688 314.091C404.474 314.284 402.219 314.685 399.997 314.585L399.584 314.708C397.456 315.483 394.299 315.109 391.997 315.109C386.788 315.108 381.582 315.044 376.373 315.005C370.439 314.96 364.303 315.37 358.397 314.951C354.842 314.699 351.458 314.197 347.876 314.229C345.625 314.249 343.516 314.777 341.25 314.662C334.653 314.33 328.036 313.246 321.447 312.718C317.428 312.396 312.376 312.568 308.56 311.516C306.376 310.914 298.542 309.211 296.704 310.148C296.736 311.148 296.682 312.02 296.521 313.008L296.467 313.329C296.711 318.691 297.753 324.124 298.509 329.438C299.344 335.296 299.954 341.22 300.871 347.061C301.925 353.772 303.255 361.209 303.003 368.016C296.266 370.327 292.076 374.988 288.978 381.266C285.012 389.303 283.515 398.197 286.617 406.85C289.509 414.914 296.115 420.174 303.635 423.709C304.093 427.02 304.044 430.323 304.053 433.658C304.059 435.853 304.212 438.133 303.844 440.299C301.475 440.516 299.45 440.901 297.562 442.425C297.085 443.775 297.221 443.885 297.64 445.19C298.632 446.165 299.316 446.517 300.639 446.925C303.71 467.556 305.85 488.377 308.559 509.065C311.163 528.954 314.683 548.729 316.937 568.667C317.151 570.565 318.358 575.437 317.695 577.007C327.442 578.442 337.425 578.37 347.245 579.085C361.121 580.095 375.069 581.489 388.983 581.654C413.324 581.944 437.752 578.872 461.625 574.33C469.495 572.833 478.384 571.754 485.605 568.218C487.3 565.903 488.129 563.691 488.879 560.957C492.308 548.446 494.313 535.373 496.567 522.614C500.461 500.573 504.06 478.466 507.685 456.378C513.092 423.425 518.476 390.45 523.413 357.423C526.252 338.433 529.254 319.42 531.191 300.315C529.281 299.752 527.35 300.44 525.463 300.877C521.857 301.713 518.293 302.646 514.664 303.387C504.462 305.468 494.03 306.601 483.697 307.764C479.693 308.215 475.417 309.034 471.403 309.02ZM469.831 221.441C469.229 222.175 469.219 222.178 469.206 223.125C469.835 223.369 470.419 223.52 471.082 223.647L490.581 219.123C490.897 219.335 491.298 219.456 491.527 219.758C492.243 220.702 492.759 223.809 493.104 225.042C495.35 233.055 497.545 241.228 499.137 249.398L501.066 261.629C503.865 261.073 506.809 260.773 509.641 260.378C511.541 260.114 513.555 260.328 515.249 259.326C518.122 258.271 522.036 257.738 525.093 257.745L529.457 257.474C526.458 245.714 522.78 232.298 512.87 224.348C508.52 220.857 502.801 218.384 497.642 216.301C496.397 215.799 494.65 214.856 493.379 214.635C492.605 214.501 487.335 217.391 486 217.841C481.148 219.477 475.365 220.907 470.258 221.403L469.831 221.441ZM251.756 261.21C252.584 259.113 252.989 256.828 253.767 254.697C256.193 248.052 259.013 241.138 262.677 235.09C264.766 231.642 267.313 228.505 269.848 225.382L270.986 224.293C271.315 224.011 272.079 223.168 272.438 223.045C273.907 222.539 276.694 223.011 278.279 223.106C281.012 222.874 283.269 223.293 285.938 223.637C292.74 224.516 300.118 225.879 306.944 224.647C304.488 223.762 302.04 223.841 299.595 222.639L299.154 222.412C296.849 222.378 294.596 222.31 292.312 222.687C291.834 222.367 291.633 222.325 291.375 221.793C286.458 221.106 281.167 220.158 276.473 218.546C274.978 218.033 273.651 217.406 272.268 216.641C272.162 216.583 271.123 215.93 271.035 215.933C269.728 215.973 263.004 220.898 261.477 222.05C252.904 228.52 247.053 237.34 243.365 247.322C241.941 251.175 240.792 255.334 239.031 259.036L251.756 261.21ZM435.992 224.627C435.357 224.822 434.668 224.979 434.062 225.249L436.062 225.868L436.002 227.107L435.429 227.21C434.715 227.344 434.989 227.254 434.468 227.482L434.904 227.717C440.924 227.684 447.184 226.877 453.177 226.188C459.143 225.503 465.209 224.919 471.082 223.647C470.419 223.52 469.835 223.369 469.206 223.125C469.219 222.178 469.229 222.175 469.831 221.441L435.992 224.627ZM425.863 225.186L425.592 226.688C427.592 228.313 430.4 227.374 432.784 227.928C433.586 227.979 434.124 227.877 434.904 227.717L434.468 227.482C434.989 227.254 434.715 227.344 435.429 227.21L436.002 227.107L436.062 225.868L434.062 225.249C434.668 224.979 435.357 224.822 435.992 224.627L425.863 225.186ZM350.52 206.401C348.382 207.167 346.655 208.109 344.75 209.334L350.022 211.353C350.641 210.104 351.111 208.894 351.52 207.562L350.52 206.401Z"/>
	<path fill="#F57A24" fill-opacity="0.86274511" transform="scale(0.666667 0.666667)" d="M425.863 225.186L435.992 224.627C435.357 224.822 434.668 224.979 434.062 225.249L436.062 225.868L436.002 227.107L435.429 227.21C434.715 227.344 434.989 227.254 434.468 227.482L434.904 227.717C434.124 227.877 433.586 227.979 432.784 227.928C430.4 227.374 427.592 228.313 425.592 226.688L425.863 225.186Z"/>
	<path fill="#FFB553" transform="scale(0.666667 0.666667)" d="M229.083 281.816C224.824 281.563 220.419 280.106 216.406 278.723C218.06 274.104 219.714 270.756 223.497 267.549L223.739 268.188C223.977 268.848 223.993 269.287 223.989 269.977C223.98 271.21 224.533 271.855 225.158 272.855L225.555 273.54L226.246 274.626C227.144 276.014 227.743 277.477 228.346 279.002L228.629 279.657C228.927 280.405 228.995 281.025 229.083 281.816Z"/>
	<path fill="#E79150" fill-opacity="0.98823529" transform="scale(0.666667 0.666667)" d="M435.992 224.627L469.831 221.441C469.229 222.175 469.219 222.178 469.206 223.125C469.835 223.369 470.419 223.52 471.082 223.647C465.209 224.919 459.143 225.503 453.177 226.188C447.184 226.877 440.924 227.684 434.904 227.717L434.468 227.482C434.989 227.254 434.715 227.344 435.429 227.21L436.002 227.107L436.062 225.868L434.062 225.249C434.668 224.979 435.357 224.822 435.992 224.627Z"/>
	<path fill="#9F492C" transform="scale(0.666667 0.666667)" d="M469.012 302.186L531.567 295.121L531.191 300.315C529.281 299.752 527.35 300.44 525.463 300.877C521.857 301.713 518.293 302.646 514.664 303.387C504.462 305.468 494.03 306.601 483.697 307.764C479.693 308.215 475.417 309.034 471.403 309.02C472.03 308.617 472.39 308.291 472.83 307.688C472.858 306.226 472.95 304.879 472.32 303.519L472.156 303.188L471.75 302.361L469.012 302.186Z"/>
	<path fill="#FFB553" transform="scale(0.666667 0.666667)" d="M236.092 298.135L235.157 293.98L235.375 293.775L294.207 300.48C295.282 303.137 295.145 306.337 295.7 309.167C292.223 308.135 288.396 307.921 284.812 307.462C277.871 306.572 270.957 305.215 264.062 304.002L236.092 298.135Z"/>
	<path fill="#E79150" transform="scale(0.666667 0.666667)" d="M299.154 222.412C303.964 222.549 308.704 223.33 313.484 223.849C319.507 224.504 325.613 224.922 331.663 225.298C357.8 226.922 384.289 226.99 410.438 225.752C415.549 225.51 420.778 225.669 425.863 225.186L425.592 226.688C427.592 228.313 430.4 227.374 432.784 227.928C426.897 228.185 421.025 228.733 415.145 228.974C404.768 229.398 394.335 229.392 383.95 229.557C377.537 229.66 371.177 230.035 364.723 229.936C353.387 229.763 341.942 229.323 330.602 228.877C327.349 228.75 323.005 227.843 319.893 228.339L284.188 224.744C282.243 224.365 279.969 224.178 278.279 223.106C281.012 222.874 283.269 223.293 285.938 223.637C292.74 224.516 300.118 225.879 306.944 224.647C304.488 223.762 302.04 223.841 299.595 222.639L299.154 222.412Z"/>
	<path fill="#B9714F" transform="scale(0.666667 0.666667)" d="M395.422 304.964L469.012 302.186L471.75 302.361L472.156 303.188L472.32 303.519C472.95 304.879 472.858 306.226 472.83 307.688C472.39 308.291 472.03 308.617 471.403 309.02C454.615 310.917 437.584 311.799 420.728 312.958C416.056 313.28 411.354 313.683 406.688 314.091C404.474 314.284 402.219 314.685 399.997 314.585C399.918 312.356 399.671 307.526 398.638 305.625C397.619 305.109 396.539 305.078 395.422 304.964Z"/>
	<path fill="#F57A24" transform="scale(0.666667 0.666667)" d="M350.52 206.401C353.289 204.84 356.91 204.423 359.988 203.812C374.719 200.888 378.913 196.645 385.645 183.604C387.863 190.272 389.839 197.056 396.562 200.505C401.052 202.809 406.382 203.612 411.194 205.01C414.598 205.999 417.809 207.419 421.096 208.728C410.5 213.945 400.24 214.458 388.601 214.813C375.438 215.214 362.823 214.716 350.022 211.353C350.641 210.104 351.111 208.894 351.52 207.562L350.52 206.401Z"/>
	<path fill="#FFB553" transform="scale(0.666667 0.666667)" d="M382.817 198.188C383.55 198.016 383.955 197.962 384.703 198.164C387.189 198.836 389.185 201.868 390.186 204.053C390.727 205.233 391.065 206.761 390.632 208.011L389.062 208.483C386.627 208.567 384.809 208.473 382.942 206.709C381.717 205.552 381.019 203.747 381.022 202.064C381.026 200.489 381.778 199.289 382.817 198.188Z"/>
	<path fill="#3A3A3B" transform="scale(0.666667 0.666667)" d="M490.581 219.123L494.091 218.126C495.675 219.219 496.745 220.141 497.982 221.625L498.451 222.165C500.487 224.531 501.913 227.36 503.446 230.062C507.337 236.921 510.753 244.182 512.898 251.793C513.458 253.779 513.898 257.939 515.249 259.326C513.555 260.328 511.541 260.114 509.641 260.378C506.809 260.773 503.865 261.073 501.066 261.629L499.137 249.398C497.545 241.228 495.35 233.055 493.104 225.042C492.759 223.809 492.243 220.702 491.527 219.758C491.298 219.456 490.897 219.335 490.581 219.123Z"/>
	<path fill="#F57A24" transform="scale(0.666667 0.666667)" d="M294.207 300.48C316.532 301.548 338.882 302.695 361.217 303.493C368.583 303.756 375.939 304.182 383.304 304.435C387.015 304.562 391.831 304.242 395.422 304.964C396.539 305.078 397.619 305.109 398.638 305.625C399.671 307.526 399.918 312.356 399.997 314.585L399.584 314.708C397.456 315.483 394.299 315.109 391.997 315.109C386.788 315.108 381.582 315.044 376.373 315.005C370.439 314.96 364.303 315.37 358.397 314.951C354.842 314.699 351.458 314.197 347.876 314.229C345.625 314.249 343.516 314.777 341.25 314.662C334.653 314.33 328.036 313.246 321.447 312.718C317.428 312.396 312.376 312.568 308.56 311.516C306.376 310.914 298.542 309.211 296.704 310.148C296.736 311.148 296.682 312.02 296.521 313.008L296.467 313.329L295.7 309.167C295.145 306.337 295.282 303.137 294.207 300.48Z"/>
	<defs>
		<linearGradient id="gradient_0" gradientUnits="userSpaceOnUse" x1="299.06201" y1="265.31201" x2="274.44699" y2="268.84698">
			<stop offset="0" stop-color="#4A5159"/>
			<stop offset="1" stop-color="#899093"/>
		</linearGradient>
	</defs>
	<path fill="url(#gradient_0)" transform="scale(0.666667 0.666667)" d="M270.986 224.293C271.315 224.011 272.079 223.168 272.438 223.045C273.907 222.539 276.694 223.011 278.279 223.106C279.969 224.178 282.243 224.365 284.188 224.744L282.938 225.013C282 228.01 282.654 232.472 283.384 235.512L283.503 236.041C284.815 241.555 289.672 246.852 292.658 251.607C295.605 256.298 298.385 261.268 300.399 266.438C299.259 266.749 298.07 266.659 296.897 266.652L272.066 264.199L251.756 261.21C252.584 259.113 252.989 256.828 253.767 254.697C256.193 248.052 259.013 241.138 262.677 235.09C264.766 231.642 267.313 228.505 269.848 225.382L270.986 224.293Z"/>
	<path fill="#8B8F92" transform="scale(0.666667 0.666667)" d="M270.986 224.293C272.318 225.817 271.781 229.365 271.788 231.455C271.518 230.981 271.371 230.63 271.342 230.079C271.247 228.246 270.626 227.004 269.848 225.382L270.986 224.293Z"/>
	<defs>
		<linearGradient id="gradient_1" gradientUnits="userSpaceOnUse" x1="273.56201" y1="260.43799" x2="253.032" y2="261.832">
			<stop offset="0" stop-color="#8A9193"/>
			<stop offset="1" stop-color="#CDCCCB"/>
		</linearGradient>
	</defs>
	<path fill="url(#gradient_1)" transform="scale(0.666667 0.666667)" d="M251.756 261.21C252.584 259.113 252.989 256.828 253.767 254.697C256.193 248.052 259.013 241.138 262.677 235.09C264.766 231.642 267.313 228.505 269.848 225.382C270.626 227.004 271.247 228.246 271.342 230.079C271.371 230.63 271.518 230.981 271.788 231.455C271.995 232.875 272.776 236.166 272.061 237.29C272.06 239.405 272.247 241.303 272.431 243.375C272.611 245.391 272.318 247.322 272.731 249.331L273.825 259.95C273.909 260.725 273.773 261.252 273.637 262C273.538 262.546 273.59 262.999 273.68 263.541L272.066 264.199L251.756 261.21Z"/>
	<path fill="#3A3A3B" transform="scale(0.666667 0.666667)" d="M296.897 266.652C298.07 266.659 299.259 266.749 300.399 266.438C298.385 261.268 295.605 256.298 292.658 251.607C289.672 246.852 284.815 241.555 283.503 236.041L283.384 235.512C282.654 232.472 282 228.01 282.938 225.013L284.188 224.744L319.893 228.339L315.469 228.477C315.603 229.262 315.596 230.266 316.108 230.873C318.337 233.518 319.686 237.12 321.383 240.15C324.273 245.312 327.616 250.281 330.722 255.319C332.836 258.747 335.128 263.877 338.248 266.257L338.545 266.501C339.498 267.262 342.204 267.987 342.75 268.691C341.037 268.899 339.39 268.768 337.688 268.875L336.375 268.783C334.688 268.664 333.09 268.679 331.415 268.908C329.808 269.259 326.873 268.775 325.125 268.712C315.855 268.375 306.059 268.068 296.897 266.652Z"/>
	<defs>
		<linearGradient id="gradient_2" gradientUnits="userSpaceOnUse" x1="353.43799" y1="291.56201" x2="297.422" y2="214.547">
			<stop offset="0" stop-color="#CE8B57"/>
			<stop offset="1" stop-color="#FFC46A"/>
		</linearGradient>
	</defs>
	<path fill="url(#gradient_2)" transform="scale(0.666667 0.666667)" d="M223.497 267.549C225.1 266.3 225.19 266.099 227.25 266.342C232.64 266.981 238.068 268.242 243.453 269.054C255.99 270.944 268.541 272.561 281.148 273.914C310.904 277.107 340.677 277.549 370.568 277.504L364.688 282.398L363.562 282.191L357.562 287.952C356.926 287.471 357.204 287.79 356.812 286.927L356.225 287.062L356.005 287.648C355.362 289.334 354.429 290.596 354.07 292.406C351.163 292.694 348.106 292.423 345.188 292.345C339.6 292.194 334.038 291.977 328.454 291.751C309.433 290.981 290.598 289.727 271.657 287.808C257.387 286.362 243.151 284.661 229.083 281.816C228.995 281.025 228.927 280.405 228.629 279.657L228.346 279.002C227.743 277.477 227.144 276.014 226.246 274.626L225.555 273.54L225.158 272.855C224.533 271.855 223.98 271.21 223.989 269.977C223.993 269.287 223.977 268.848 223.739 268.188L223.497 267.549Z"/>
	<path fill="#B9714F" transform="scale(0.666667 0.666667)" d="M370.568 277.504C420.202 277.601 469.734 276.386 518.962 269.315C522.019 268.876 539.462 265.654 540.997 266.208C541.759 266.482 543.135 267.777 543.713 268.366C546.187 270.89 548.388 274.716 548.645 278.256L548.812 279.305C546.137 281.051 541.514 281.446 538.375 282.081C519.299 285.937 500.272 287.727 480.898 289.252C470.617 290.062 460.178 291.161 449.859 290.95C440.806 291.709 431.783 291.628 422.712 291.802C418.4 291.885 414.098 292.306 409.786 292.439C405.193 292.58 400.594 292.44 396 292.532C386.333 292.727 376.802 292.752 367.125 292.628C362.813 292.573 358.356 292.881 354.07 292.406C354.429 290.596 355.362 289.334 356.005 287.648L356.225 287.062L356.812 286.927C357.204 287.79 356.926 287.471 357.562 287.952L363.562 282.191L364.688 282.398L370.568 277.504Z"/>
	<path fill="#9F492C" transform="scale(0.666667 0.666667)" d="M449.859 290.95C450.929 290.785 451.966 290.718 452.874 290.084C454.36 289.045 456.789 288.65 458.565 288.217C463.339 287.055 468.187 286.224 472.935 284.955C477.55 283.722 482.042 282.016 486.704 280.972C501.047 277.76 515.57 275.754 530.177 274.218C532.493 273.974 535.552 273.204 537.844 273.521C541.392 274.013 543.425 276.484 546.347 278.062C547.12 278.48 547.809 278.499 548.645 278.256L548.812 279.305C546.137 281.051 541.514 281.446 538.375 282.081C519.299 285.937 500.272 287.727 480.898 289.252C470.617 290.062 460.178 291.161 449.859 290.95Z"/>
	<defs>
		<linearGradient id="gradient_3" gradientUnits="userSpaceOnUse" x1="491.06201" y1="220.688" x2="359.42099" y2="301.79001">
			<stop offset="0" stop-color="#0B0A0A"/>
			<stop offset="1" stop-color="#3A3A3B"/>
		</linearGradient>
	</defs>
	<path fill="url(#gradient_3)" transform="scale(0.666667 0.666667)" d="M471.082 223.647L490.581 219.123C490.897 219.335 491.298 219.456 491.527 219.758C492.243 220.702 492.759 223.809 493.104 225.042C495.35 233.055 497.545 241.228 499.137 249.398L501.066 261.629C497.7 261.231 493.796 262.093 490.402 262.407C481.852 263.198 473.314 264.095 464.765 264.894C426.128 268.505 387.391 270.74 348.576 269.676C344.749 269.571 340.921 269.515 337.095 269.357C335.278 269.282 333.162 269.373 331.415 268.908C333.09 268.679 334.688 268.664 336.375 268.783L337.688 268.875C339.39 268.768 341.037 268.899 342.75 268.691C342.204 267.987 339.498 267.262 338.545 266.501L338.248 266.257C335.128 263.877 332.836 258.747 330.722 255.319C327.616 250.281 324.273 245.312 321.383 240.15C319.686 237.12 318.337 233.518 316.108 230.873C315.596 230.266 315.603 229.262 315.469 228.477L319.893 228.339C323.005 227.843 327.349 228.75 330.602 228.877C341.942 229.323 353.387 229.763 364.723 229.936C371.177 230.035 377.537 229.66 383.95 229.557C394.335 229.392 404.768 229.398 415.145 228.974C421.025 228.733 426.897 228.185 432.784 227.928C433.586 227.979 434.124 227.877 434.904 227.717C440.924 227.684 447.184 226.877 453.177 226.188C459.143 225.503 465.209 224.919 471.082 223.647Z"/>
	<path fill="#FFE39C" transform="scale(0.666667 0.666667)" d="M236.092 298.135L264.062 304.002C270.957 305.215 277.871 306.572 284.812 307.462C288.396 307.921 292.223 308.135 295.7 309.167L296.467 313.329C296.711 318.691 297.753 324.124 298.509 329.438C299.344 335.296 299.954 341.22 300.871 347.061C301.925 353.772 303.255 361.209 303.003 368.016C296.266 370.327 292.076 374.988 288.978 381.266C285.012 389.303 283.515 398.197 286.617 406.85C289.509 414.914 296.115 420.174 303.635 423.709C304.093 427.02 304.044 430.323 304.053 433.658C304.059 435.853 304.212 438.133 303.844 440.299C301.475 440.516 299.45 440.901 297.562 442.425C297.085 443.775 297.221 443.885 297.64 445.19C298.632 446.165 299.316 446.517 300.639 446.925C303.71 467.556 305.85 488.377 308.559 509.065C311.163 528.954 314.683 548.729 316.937 568.667C317.151 570.565 318.358 575.437 317.695 577.007L282.501 568.292C277.967 555.468 275.762 541.356 273.238 528.012C269.103 506.153 265.445 484.186 261.718 462.253C257.187 435.583 252.647 408.918 248.163 382.239C243.47 354.31 238.886 326.329 236.092 298.135Z"/>
	<defs>
		<linearGradient id="gradient_4" gradientUnits="userSpaceOnUse" x1="530.43799" y1="301.31201" x2="298.69901" y2="289.10901">
			<stop offset="0" stop-color="#F86117"/>
			<stop offset="1" stop-color="#FFB044"/>
		</linearGradient>
	</defs>
	<path fill="url(#gradient_4)" transform="scale(0.666667 0.666667)" d="M471.403 309.02C475.417 309.034 479.693 308.215 483.697 307.764C494.03 306.601 504.462 305.468 514.664 303.387C518.293 302.646 521.857 301.713 525.463 300.877C527.35 300.44 529.281 299.752 531.191 300.315C529.254 319.42 526.252 338.433 523.413 357.423C518.476 390.45 513.092 423.425 507.685 456.378C504.06 478.466 500.461 500.573 496.567 522.614C494.313 535.373 492.308 548.446 488.879 560.957C488.129 563.691 487.3 565.903 485.605 568.218C478.384 571.754 469.495 572.833 461.625 574.33C437.752 578.872 413.324 581.944 388.983 581.654C375.069 581.489 361.121 580.095 347.245 579.085C337.425 578.37 327.442 578.442 317.695 577.007C318.358 575.437 317.151 570.565 316.937 568.667C314.683 548.729 311.163 528.954 308.559 509.065C305.85 488.377 303.71 467.556 300.639 446.925C299.316 446.517 298.632 446.165 297.64 445.19C297.221 443.885 297.085 443.775 297.562 442.425C299.45 440.901 301.475 440.516 303.844 440.299C304.212 438.133 304.059 435.853 304.053 433.658C304.044 430.323 304.093 427.02 303.635 423.709C296.115 420.174 289.509 414.914 286.617 406.85C283.515 398.197 285.012 389.303 288.978 381.266C292.076 374.988 296.266 370.327 303.003 368.016C303.255 361.209 301.925 353.772 300.871 347.061C299.954 341.22 299.344 335.296 298.509 329.438C297.753 324.124 296.711 318.691 296.467 313.329L296.521 313.008C296.682 312.02 296.736 311.148 296.704 310.148C298.542 309.211 306.376 310.914 308.56 311.516C312.376 312.568 317.428 312.396 321.447 312.718C328.036 313.246 334.653 314.33 341.25 314.662C343.516 314.777 345.625 314.249 347.876 314.229C351.458 314.197 354.842 314.699 358.397 314.951C364.303 315.37 370.439 314.96 376.373 315.005C381.582 315.044 386.788 315.108 391.997 315.109C394.299 315.109 397.456 315.483 399.584 314.708L399.997 314.585C402.219 314.685 404.474 314.284 406.688 314.091C411.354 313.683 416.056 313.28 420.728 312.958C437.584 311.799 454.615 310.917 471.403 309.02ZM461.653 367.975C452.917 370.318 446.406 373.788 441.706 381.804C437.883 388.326 436.34 396.49 438.356 403.85C440.403 411.325 445.252 417.662 452.062 421.434C457.707 424.56 464.219 425.602 470.597 424.671C478.837 422.586 485.71 418.606 490.147 411.094C491.688 408.484 492.797 405.687 493.525 402.75C495.258 395.76 493.696 388.53 490.112 382.344C486.259 375.692 479.599 370.666 472.147 368.764C468.644 367.869 465.251 367.498 461.653 367.975Z"/>
	<path transform="scale(0.666667 0.666667)" d="M303.844 440.299L304.606 440.293C306.695 440.26 308.759 439.867 310.852 439.838C316.249 439.765 320.367 441.04 324.558 444.457C329.142 449.331 332.274 455.289 336.471 460.475C347.946 474.655 365.076 483.884 383.434 484.433C399.442 484.912 416.447 477.728 427.889 466.67C430.674 463.979 433.23 460.915 435.416 457.723C438.682 452.955 441.865 446.577 446.812 443.309C451.008 440.538 456.337 439.939 461.243 439.951C463.77 439.957 468.373 439.981 470.202 441.794C470.756 442.342 470.737 442.164 470.707 442.887C470.661 443.996 470.165 444.856 469.334 445.566C467.116 447.463 461.404 447.042 458.438 447.818C456.054 448.442 453.804 449.654 451.901 451.211C446.582 455.566 442.981 462.797 438.592 468.118C424.361 485.371 401.127 497.931 378.254 494.936C357.541 492.224 340.444 481.194 327.878 464.692C323.02 458.313 318.132 448.362 309.259 447.217L300.639 446.925C299.316 446.517 298.632 446.165 297.64 445.19C297.221 443.885 297.085 443.775 297.562 442.425C299.45 440.901 301.475 440.516 303.844 440.299Z"/>
	<path transform="scale(0.666667 0.666667)" d="M461.653 367.975C465.251 367.498 468.644 367.869 472.147 368.764C479.599 370.666 486.259 375.692 490.112 382.344C493.696 388.53 495.258 395.76 493.525 402.75C492.797 405.687 491.688 408.484 490.147 411.094C485.71 418.606 478.837 422.586 470.597 424.671C464.219 425.602 457.707 424.56 452.062 421.434C445.252 417.662 440.403 411.325 438.356 403.85C436.34 396.49 437.883 388.326 441.706 381.804C446.406 373.788 452.917 370.318 461.653 367.975ZM461.095 380.453L461.616 381.117L461.493 381.593C461.268 382.569 461.322 383.125 460.635 383.917L459.905 384.144C457.483 384.925 456.786 386.637 454.719 387.736C453.255 388.515 452.355 389.746 451.388 391.057C451.384 392.104 451.234 392.383 451.875 393.191L452.249 393.19C453.052 393.296 453.676 393.854 454.312 394.316L455.138 396.529C455.508 397.569 455.898 399.279 455.423 400.289L455.191 400.735L454.06 401.062L455.733 401.428L486.762 398.483C485.846 393.874 481.541 388.165 477.915 385.242C473.221 381.458 467.046 379.851 461.095 380.453ZM446.363 398.673C446.621 399.751 446.927 401.729 447.798 402.384L451.03 401.971L455.733 401.428L454.06 401.062L455.191 400.735L455.423 400.289C455.898 399.279 455.508 397.569 455.138 396.529L454.312 394.316C453.676 393.854 453.052 393.296 452.249 393.19L451.875 393.191C451.234 392.383 451.384 392.104 451.388 391.057C452.355 389.746 453.255 388.515 454.719 387.736C456.786 386.637 457.483 384.925 459.905 384.144L460.635 383.917C461.322 383.125 461.268 382.569 461.493 381.593L461.616 381.117L461.095 380.453C455.739 382.004 450.929 384.294 448.143 389.438C446.53 392.415 446.038 395.33 446.363 398.673Z"/>
	<path fill="#FCFAF7" transform="scale(0.666667 0.666667)" d="M446.363 398.673C446.038 395.33 446.53 392.415 448.143 389.438C450.929 384.294 455.739 382.004 461.095 380.453L461.616 381.117L461.493 381.593C461.268 382.569 461.322 383.125 460.635 383.917L459.905 384.144C457.483 384.925 456.786 386.637 454.719 387.736C453.255 388.515 452.355 389.746 451.388 391.057C451.384 392.104 451.234 392.383 451.875 393.191L452.249 393.19C453.052 393.296 453.676 393.854 454.312 394.316L455.138 396.529C455.508 397.569 455.898 399.279 455.423 400.289L455.191 400.735L454.06 401.062L455.733 401.428L451.03 401.971L447.798 402.384C446.927 401.729 446.621 399.751 446.363 398.673ZM446.363 398.673C446.621 399.751 446.927 401.729 447.798 402.384L451.03 401.971C451.442 401.522 451.274 401.633 451.709 401.373C452.629 400.824 453.153 400.38 453.854 399.562C453.555 398.709 453.273 397.301 452.817 396.562C452.399 395.885 451.05 395.024 450.388 394.487C450.121 393.702 449.817 392.998 449.438 392.26L448.688 392.348C448.567 392.871 448.499 393.347 448.486 393.884L448.457 395.048C448.35 396.926 447.679 397.501 446.363 398.673Z"/>
	<path fill="#FCF2E8" fill-opacity="0.58431375" transform="scale(0.666667 0.666667)" d="M446.363 398.673C447.679 397.501 448.35 396.926 448.457 395.048L448.486 393.884C448.499 393.347 448.567 392.871 448.688 392.348L449.438 392.26C449.817 392.998 450.121 393.702 450.388 394.487C451.05 395.024 452.399 395.885 452.817 396.562C453.273 397.301 453.555 398.709 453.854 399.562C453.153 400.38 452.629 400.824 451.709 401.373C451.274 401.633 451.442 401.522 451.03 401.971L447.798 402.384C446.927 401.729 446.621 399.751 446.363 398.673Z"/>
	<path fill="#FCF2E8" fill-opacity="0.83137256" transform="scale(0.666667 0.666667)" d="M461.095 380.453C467.046 379.851 473.221 381.458 477.915 385.242C481.541 388.165 485.846 393.874 486.762 398.483L455.733 401.428L454.06 401.062L455.191 400.735L455.423 400.289C455.898 399.279 455.508 397.569 455.138 396.529L454.312 394.316C453.676 393.854 453.052 393.296 452.249 393.19L451.875 393.191C451.234 392.383 451.384 392.104 451.388 391.057C452.355 389.746 453.255 388.515 454.719 387.736C456.786 386.637 457.483 384.925 459.905 384.144L460.635 383.917C461.322 383.125 461.268 382.569 461.493 381.593L461.616 381.117L461.095 380.453Z"/>
	<path transform="scale(0.666667 0.666667)" d="M303.003 368.016C312.125 367.162 320.8 368.22 328.12 374.201C333.795 378.837 337.974 385.14 339.766 392.25L339.949 392.947C341.742 399.952 339.914 407.718 336.241 413.807C333.965 417.58 330.634 421.011 326.779 423.174L326.788 423.705C326.831 425.461 327.326 426.778 327.617 428.438L327.782 428.792C328.16 429.665 328.164 434.325 327.795 435.208L327.626 435.562L327.416 436.877C326.924 439.382 326.119 442.406 324.558 444.457C320.367 441.04 316.249 439.765 310.852 439.838C308.759 439.867 306.695 440.26 304.606 440.293L303.844 440.299C304.212 438.133 304.059 435.853 304.053 433.658C304.044 430.323 304.093 427.02 303.635 423.709C296.115 420.174 289.509 414.914 286.617 406.85C283.515 398.197 285.012 389.303 288.978 381.266C292.076 374.988 296.266 370.327 303.003 368.016Z"/>
	<defs>
		<linearGradient id="gradient_5" gradientUnits="userSpaceOnUse" x1="327.18799" y1="435.56201" x2="303.76199" y2="432.73999">
			<stop offset="0" stop-color="#FFB047"/>
			<stop offset="1" stop-color="#FFCF70"/>
		</linearGradient>
	</defs>
	<path fill="url(#gradient_5)" transform="scale(0.666667 0.666667)" d="M303.635 423.709C311.767 426.316 318.805 426.173 326.779 423.174L326.788 423.705C326.831 425.461 327.326 426.778 327.617 428.438L327.782 428.792C328.16 429.665 328.164 434.325 327.795 435.208L327.626 435.562L327.416 436.877C326.924 439.382 326.119 442.406 324.558 444.457C320.367 441.04 316.249 439.765 310.852 439.838C308.759 439.867 306.695 440.26 304.606 440.293L303.844 440.299C304.212 438.133 304.059 435.853 304.053 433.658C304.044 430.323 304.093 427.02 303.635 423.709Z"/>
	<path fill="#FCF2E8" transform="scale(0.666667 0.666667)" d="M308.523 380.006C312.266 380.253 315.468 380.802 318.891 382.394C325.998 385.699 329.695 391.856 332.225 398.945L312.283 399.825L293.138 402.27C292.05 400.603 290.977 399.106 290.642 397.096C290.099 393.831 291.398 390.523 293.343 387.938C297.062 382.993 302.541 380.709 308.523 380.006Z"/>
</svg>
