<?xml version="1.0" encoding="utf-8" ?>
<svg xmlns="http://www.w3.org/2000/svg" xmlns:xlink="http://www.w3.org/1999/xlink" width="512" height="512">
	<path fill="#1F1F1F" transform="scale(0.666667 0.666667)" d="M115.415 157.687L115.745 157.615C116.894 157.469 117.839 157.521 118.688 158.418C119.764 159.557 119.596 160.378 119.51 161.812C118.758 163.104 118.165 163.715 116.854 164.438C116.556 164.51 116.373 164.577 116.042 164.534C115.046 164.405 114.265 163.923 113.696 163.11C113.071 162.216 112.911 161.158 113.221 160.125C113.599 158.864 114.332 158.33 115.415 157.687Z"/>
	<path fill="#1F1F1F" transform="scale(0.666667 0.666667)" d="M209.098 144.188C209.47 144.129 209.795 144.054 210.181 144.118C211.023 144.259 211.599 144.724 212.072 145.393C212.64 146.196 212.813 147.468 212.491 148.427C212.026 149.815 210.632 150.689 209.409 151.312L207.938 151.446C207.234 151.024 206.744 150.701 206.352 149.957C205.823 148.955 205.681 147.513 206.142 146.46C206.729 145.119 207.759 144.538 209.098 144.188Z"/>
	<path fill="#1F1F1F" transform="scale(0.666667 0.666667)" d="M237.95 116.438C239.615 116.03 240.27 116.307 241.688 117.131C242.543 118.423 242.464 118.866 242.532 120.375C241.958 121.785 241.374 122.48 240.188 123.427C239.154 123.815 238.715 123.762 237.672 123.562C236.809 122.752 236.186 122.187 236.006 120.938C235.775 119.335 236.891 117.516 237.95 116.438Z"/>
	<path fill="#1F1F1F" fill-opacity="0.98823529" transform="scale(0.666667 0.666667)" d="M595.673 202.688L596.055 202.677C596.971 202.759 597.907 203.268 598.443 204.015C599.212 205.086 599.435 206.188 599.1 207.478C598.799 208.637 597.415 209.35 596.438 209.875L594.938 209.968C593.866 209.39 593.146 209.139 592.712 207.889C592.408 207.015 592.469 205.374 592.927 204.562C593.659 203.264 594.352 203.054 595.673 202.688Z"/>
	<path fill="#1F1F1F" fill-opacity="0.97647059" transform="scale(0.666667 0.666667)" d="M635.634 170.062C636.08 170.049 636.678 170.19 637.125 170.254C637.801 170.732 638.386 171.097 638.803 171.84C639.285 172.701 639.565 173.808 639.303 174.782C638.838 176.506 638.03 176.842 636.562 177.675C635.891 177.692 635.344 177.579 634.688 177.452C633.766 176.79 633.193 176.271 632.781 175.184C632.428 174.253 632.574 173.365 633.011 172.5C633.627 171.28 634.306 170.517 635.634 170.062Z"/>
	<path fill="#1F1F1F" transform="scale(0.666667 0.666667)" d="M146.538 141.562C147.043 141.517 147.456 141.498 147.938 141.72C149.05 142.231 149.935 143.41 150.3 144.562C150.651 145.669 150.31 146.832 149.667 147.766C149.023 148.699 147.837 148.982 146.812 149.239C146.47 149.249 146.29 149.277 145.933 149.161C144.83 148.802 143.899 147.885 143.468 146.812C142.943 145.507 143.01 144.541 143.722 143.331C144.324 142.308 145.479 141.918 146.538 141.562Z"/>
	<path fill="#1F1F1F" transform="scale(0.666667 0.666667)" d="M93.7506 195.562L94.6993 195.492C95.8986 196.004 96.5359 196.357 97.3447 197.392C97.7914 198.892 97.792 199.846 97.4743 201.375C96.7541 202.456 96.2084 202.876 95.0625 203.474L93.1875 203.54C92.6361 203.239 92.0433 202.959 91.6736 202.425C90.8128 201.181 90.6821 199.208 91.183 197.812C91.6397 196.541 92.5726 196.054 93.7506 195.562Z"/>
	<path fill="#1F1F1F" transform="scale(0.666667 0.666667)" d="M675.427 196.688C676.003 196.627 676.571 196.621 677.148 196.694C678.297 196.841 679.354 197.625 679.986 198.581C680.496 199.353 680.654 200.304 680.417 201.202C680.03 202.668 678.677 203.416 677.438 204.075C676.692 204.324 675.966 204.257 675.188 204.258C674.171 203.714 673.338 203.208 672.824 202.125C672.362 201.149 672.368 200.076 672.744 199.072C673.27 197.674 674.13 197.221 675.427 196.688Z"/>
	<path fill="#1F1F1F" transform="scale(0.666667 0.666667)" d="M184.573 96.9375L185.102 96.8625C186.385 96.8376 188.026 97.7862 188.676 98.8729C189.312 99.9348 189.514 101.361 189.078 102.529C188.523 104.014 187.156 104.753 185.812 105.405L184.312 105.587C183.334 105.182 182.321 104.798 181.8 103.809C181.087 102.457 181.135 100.901 181.639 99.4953C182.161 98.0383 183.278 97.5562 184.573 96.9375Z"/>
	<path fill="#1F1F1F" transform="scale(0.666667 0.666667)" d="M624.972 237.937C625.589 237.792 626.086 237.707 626.714 237.873C628.012 238.218 628.827 238.812 629.443 240.004C630.012 241.104 630.33 242.965 629.851 244.148C629.161 245.852 628.061 246.512 626.438 247.214C625.876 247.398 625.561 247.38 624.958 247.276C623.399 247.008 622.554 245.556 621.813 244.312C621.647 243.008 621.362 241.638 621.996 240.42C622.719 239.032 623.53 238.468 624.972 237.937Z"/>
	<path fill="#1F1F1F" transform="scale(0.666667 0.666667)" d="M424.993 493.688C425.697 493.633 426.331 493.583 427.023 493.759C428.421 494.113 430.242 495.169 430.895 496.514C431.753 498.284 431.648 500.375 430.864 502.136C430.127 503.79 428.968 504.83 427.312 505.483C426.284 505.52 424.907 505.677 423.939 505.258C422.79 504.761 421.385 503.394 420.975 502.223C420.43 500.668 420.195 497.653 421.214 496.233C422.198 494.861 423.4 494.129 424.993 493.688Z"/>
	<path fill="#1F1F1F" transform="scale(0.666667 0.666667)" d="M64.9622 222.368C66.0433 222.342 67.3198 222.236 68.3479 222.617C69.7386 223.132 70.8219 224.381 71.3001 225.762C71.8988 227.491 71.9357 229.912 71.0761 231.56C70.1903 233.257 68.7148 234.223 66.9375 234.792C66.2734 234.937 65.795 234.974 65.1212 234.855C63.6842 234.602 62.3478 233.584 61.592 232.354C60.5968 230.734 60.2671 228.699 60.7801 226.875C61.4587 224.462 62.9034 223.569 64.9622 222.368Z"/>
	<path fill="#1F1F1F" transform="scale(0.666667 0.666667)" d="M264.487 412.688C265.286 412.759 266.305 413.074 267.028 413.416C268.858 414.283 270.009 416.042 270.548 417.938C271.048 419.698 270.961 421.519 270.027 423.123C268.75 425.318 266.615 426.765 264.188 427.364C263.416 427.344 262.886 427.313 262.197 426.928C260.152 425.786 258.183 423.398 257.774 421.041C257.493 419.421 258.302 417.372 259.215 416.062C260.579 414.108 262.207 413.172 264.487 412.688Z"/>
	<path fill="#1F1F1F" transform="scale(0.666667 0.666667)" d="M551.947 317.062L552.473 317.085C553.512 318.263 553.647 321.701 553.844 323.282C554.836 331.252 555.156 339.176 555.071 347.2C555.003 353.528 554.136 359.721 553.519 366C552.057 380.883 550.056 395.656 547.819 410.447C545.819 423.666 543.861 436.885 541.38 450.026C534.297 487.527 524.236 524.772 512.134 560.95C507.224 575.627 502.283 590.306 496.075 604.5C489.243 620.123 481.284 635.166 472.525 649.788C464.124 663.813 455.126 677.496 443.394 689L442.125 689.648L441.601 689.261C441.97 687.178 443.001 685.462 444.002 683.625C446.734 678.61 450.381 674.213 453.574 669.504C457.502 663.712 461.344 657.86 465.037 651.915C468.789 645.877 472.196 639.589 475.583 633.339C483.499 618.736 489.994 603.446 496.04 588C504.454 566.504 511.53 544.476 517.71 522.242C527.39 487.421 534.827 451.824 540.399 416.12C541.79 407.203 543.587 398.223 544.53 389.247C546.078 374.504 547.83 359.782 549.064 345.004C549.532 339.395 550.004 333.74 550.378 328.125C550.532 325.809 550.458 323.458 550.739 321.156C550.918 319.686 551.317 318.4 551.947 317.062Z"/>
	<path fill="#1F1F1F" transform="scale(0.666667 0.666667)" d="M134.648 302.812C136.756 304.223 137.329 308.928 137.765 311.282C140.026 323.482 140.995 335.964 142.679 348.26C146.883 378.96 151.202 409.629 158.484 439.786C171.065 491.888 186.798 543.288 210.413 591.531C219.154 609.389 228.852 626.954 240.078 643.381C251.364 659.895 263.645 676.069 281.062 686.599C297.144 696.322 314.641 701.033 333.069 703.745C353.466 706.748 375.267 706.956 395.404 702.096C393.873 703.286 392.105 704.186 390.424 705.149C385.302 707.551 379.433 709.734 373.897 710.894C367.117 712.314 360.332 712.242 353.451 712.237C327.52 712.219 299.61 707.861 277.505 693.438C251.378 676.391 232.862 647.458 218.051 620.686C210.703 607.404 203.295 593.915 197.035 580.083C188.687 561.638 181.825 542.524 175.386 523.343C164.965 492.298 156.088 460.411 149.463 428.33C141.979 392.092 136.251 355.569 134.286 318.598C134.073 314.607 132.477 306.126 134.648 302.812Z"/>
	<path fill="#1F1F1F" transform="scale(0.666667 0.666667)" d="M414.313 18.9375L414.755 18.8897C416.843 18.8518 419.229 20.3573 421.031 21.292C431.574 26.7602 442.361 34.6663 450.179 43.6036C459.271 53.9966 465.668 67.2625 464.532 81.375C462.882 101.866 444.332 112.066 428.885 121.938C420.665 127.192 412.496 132.492 404.961 138.712C395.931 146.166 384.722 158.242 383.754 170.483C382.922 181.011 388.449 191.593 398.032 196.339C405.312 199.945 414.174 200.614 422.139 201.39C428.591 202.019 435.059 202.678 441.501 203.405C471.126 206.748 500.562 210.534 529.248 218.98C543.856 223.282 558.311 228.547 571.085 236.993C575.367 239.824 579.884 242.972 583.224 246.888C586.181 250.354 587.674 253.839 588.384 258.363C588.926 261.81 588.76 265.432 588.678 268.914C588.486 277.034 587.53 285.129 586.576 293.183C585.301 303.949 583.995 314.771 583.183 325.592C588.713 324.501 594.104 322.537 599.652 321.326C612.169 318.595 625.836 317.86 638.625 318.427C662.413 319.482 685.867 327.771 702.094 345.752C721.923 367.723 725.883 399.736 724.336 428.149C724.022 433.915 723.069 439.76 722.111 445.452C718.391 467.553 710.286 489.002 697.191 507.292C691.015 515.918 683.636 523.606 675.756 530.681C661.872 543.148 644.493 552.446 626.472 557.183C616.172 559.89 605.491 561.25 594.938 562.499C585.098 563.663 575.043 564.676 565.125 564.63C555.879 564.588 546.692 563.554 537.475 563.033C526.621 594.415 513.232 625.241 496.81 654.112C504.485 655.279 512.699 655.116 520.472 655.851C527.493 656.515 534.497 657.812 541.434 659.059C553.676 661.261 566.558 663.948 577.993 668.971C586.879 672.874 595.726 677.102 599.431 686.66C598.433 690.154 597.35 693.275 594.876 696.034C588.332 703.332 579.804 707.592 570.814 711.124C557.974 716.169 544.51 719.295 531.018 722.013C487.606 730.759 443.521 733.029 399.405 735.208C366.55 736.83 333.449 736.625 300.562 736.19C276.146 735.868 251.709 735.662 227.323 734.231C206.078 732.985 184.814 730.892 163.71 728.141C140.944 725.173 116.907 722.118 95.4375 713.593C90.0094 711.438 84.8078 709.265 80.4388 705.264C77.1727 702.273 74.2253 698.43 74.1798 693.784C74.1412 689.842 76.5498 685.741 79.2774 683.024C85.4357 676.891 92.6057 672.437 100.529 668.944C117.627 661.406 136.869 657.942 155.218 654.98C173.127 652.089 191.265 649.914 209.427 649.817L197.689 630.391C193.93 624.156 190.919 617.511 187.502 611.092C178.964 595.053 170.829 579.138 163.848 562.339C150.561 530.365 140.748 497.141 131.995 463.688C126.731 443.566 121.573 423.275 117.347 402.908C111.207 373.324 106.714 343.324 103.653 313.278C102.291 299.913 100.75 286.526 100.583 273.081C100.513 267.448 100.261 262.255 101.638 256.74L104.593 270.781C107.29 279.561 108.531 288.646 109.522 297.75C110.541 307.111 111.529 316.485 112.604 325.833C114.156 339.318 116.511 352.842 118.893 366.199C121.931 383.231 125.576 400.223 129.215 417.141C133.982 439.3 139.05 461.495 145.379 483.268C154.872 515.92 166.592 548.038 180.448 579.095C186.459 592.57 193.254 605.587 199.974 618.71C211.767 641.742 224.618 666.15 242.605 685.011C247.5 690.145 252.945 695.144 258.786 699.188C284.752 717.16 317.661 722.07 348.529 722.743C364.756 723.097 382.104 722.148 398.027 718.849C404.508 717.506 410.924 715.596 417.308 713.862C431.963 709.882 447.703 704.8 458.88 694.036C482.871 670.931 498.775 640.841 512.288 610.727C518.192 597.568 523.365 584.159 528.53 570.7C532.965 559.145 537.506 547.54 541.184 535.718C548.952 510.746 554.531 485.063 559.714 459.447C566.374 426.534 572.12 393.405 575.608 359.991C577.535 341.521 578.393 323.014 579.758 304.5C580.851 289.673 582.796 274.897 583.109 260.015L582.652 260.606L581.498 262.147C572.748 273.043 559.557 278.695 546.845 283.551C515.31 295.596 482.371 300.431 449.062 304.62C436.91 306.149 424.79 307.758 412.601 308.993C404.841 309.779 397.115 310.078 389.34 310.531C359.072 312.294 328.814 311.959 298.541 310.563C278.751 309.651 259.309 308.152 239.615 306.069C222.97 304.309 206.138 302.221 189.735 298.867C177.303 296.325 165.126 292.79 153.046 288.938C138.67 284.353 124.073 279.195 112.289 269.447C108.931 266.67 103.004 261.062 102.748 256.383C102.534 252.468 105.011 249.114 107.617 246.484C114.702 239.334 124.093 235.185 133.081 230.972C170.892 213.251 212.746 206.823 253.902 202.122C290.695 197.918 327.868 196.04 364.893 195.748C363.8 191.888 362.738 188.321 362.518 184.273C360.895 154.317 389.138 136.776 406.796 116.895C402.368 118.679 398.134 121.217 393.831 123.319C380.615 129.775 366.065 135.664 356.438 147.306C354.784 149.305 353.258 151.447 352.057 153.75C350.936 155.899 350.019 158.359 348.584 160.316C347.819 161.358 347.19 161.71 345.938 161.915L345.229 161.062C344.873 159.19 344.81 157.378 345.07 155.484C345.914 149.351 348.827 143.131 352.56 138.237C365.065 121.842 386.066 116.575 404.083 108.603C408.736 106.544 413.82 104.377 417.905 101.328C421.103 98.9409 424.642 95.7327 425.095 91.5991C426.121 82.2286 414.507 76.213 408.334 71.2281C405.723 69.1199 403.093 66.4753 400.947 63.9047C396.5 58.5754 392.875 51.0364 393.599 43.9196L393.668 43.3125C394.252 38.0068 396.602 32.3078 400.861 28.9124C404.824 25.7533 410.733 24.0012 415.772 24.6146L416.111 24.6586C415.403 24.0563 414.7 23.1546 414.299 22.3125C413.65 20.9481 413.874 20.2623 414.313 18.9375ZM628.489 360.501C623.706 361.553 619.329 362.578 616.474 366.992C612.09 373.768 610.441 381.971 605.38 388.484C599.045 396.636 589.264 399.688 579.71 402.246C579.163 402.392 576.634 402.856 576.3 403.165C576.273 403.191 576.148 406.863 576.129 407.21C575.643 415.995 573.859 424.716 572.182 433.332C570.247 443.266 568.228 453.133 565.917 462.99C563.722 472.356 561.886 482.001 558.418 491.011C556.379 496.308 552.925 501.023 550.409 506.124C561.325 507.874 571.02 512.254 581.438 515.69C590.984 518.838 600.984 520.999 611.065 520.707C631.327 519.767 649.782 510.863 663.362 495.866C681.62 475.704 689.931 445.929 688.588 419.153C687.774 402.923 681.882 384.89 669.564 373.788C663.079 367.944 655.363 364.394 647.032 362.023C641.339 360.403 634.374 359.878 628.489 360.501ZM339.482 240.905C332.169 241.698 324.793 241.353 317.458 241.721C294.241 242.887 271.503 244.77 248.721 249.638C240.748 251.342 232.535 253.153 225.188 256.775C221.829 258.431 218.891 260.72 216.012 263.085C214.161 265.413 212.685 267.585 211.441 270.302C211.28 271.647 211.104 272.831 211.374 274.169C213.838 279.902 219.3 283.098 224.806 285.391C229.833 287.486 235.318 288.98 240.556 290.458C261.208 296.283 282.254 298.279 303.595 299.599C348.876 302.4 393.864 301.539 438.593 293.274C449.352 291.286 460.419 289.454 470.563 285.22C474.881 283.418 482.36 279.493 483.984 274.813C484.705 272.734 483.625 270.253 482.648 268.414C475.206 254.402 447.279 249.173 433.185 246.689C428.838 245.923 424.485 244.979 420.125 244.312C416.061 243.691 411.566 243.889 407.623 242.688L406.956 242.475C405.123 242.836 403.3 242.523 401.456 242.352C398.501 242.078 395.516 241.786 392.554 241.616C385.49 241.21 378.36 240.982 371.287 240.811C362.895 240.607 354.517 241.329 346.101 240.905L339.482 240.905ZM630.465 325.632L601.888 328.94L602.011 329.26C604.812 336.814 604.494 344.942 604.496 352.853C604.499 362.539 604.103 372.129 603.681 381.802C607.965 372.266 610.931 359.792 621.703 355.683C633.24 351.284 647.753 354.012 658.685 358.963C673.987 365.892 684.68 377.991 690.504 393.682C700.106 419.548 695.531 450.502 684.084 475.017C674.265 496.046 658.592 514.18 636.308 522.316C622.493 527.361 605.992 528.67 591.629 525.288C585.109 523.753 578.849 521.305 572.54 519.096L573.157 526.956C573.072 535.231 572.052 544.12 567.882 551.414C566.412 553.987 564.374 556.261 562.509 558.554C570.189 558.351 577.8 557.645 585.451 557.002C600.333 555.751 615.667 553.788 629.929 549.21C649.849 542.816 667.13 531.314 681.465 516.188C702.819 493.653 712.802 464.334 716.027 433.94C716.885 425.845 717.558 417.834 717.324 409.675C716.659 386.492 709.656 361.426 692.194 345.257C676.737 330.947 652.892 324.532 632.214 325.496C631.637 325.523 631.032 325.515 630.465 325.632ZM404.31 240.373C405.44 240.987 406.147 241.467 406.956 242.475L407.623 242.688C411.566 243.889 416.061 243.691 420.125 244.312C424.485 244.979 428.838 245.923 433.185 246.689C447.279 249.173 475.206 254.402 482.648 268.414C483.625 270.253 484.705 272.734 483.984 274.813C482.36 279.493 474.881 283.418 470.563 285.22C460.419 289.454 449.352 291.286 438.593 293.274C393.864 301.539 348.876 302.4 303.595 299.599C282.254 298.279 261.208 296.283 240.556 290.458C235.318 288.98 229.833 287.486 224.806 285.391C219.3 283.098 213.838 279.902 211.374 274.169C211.104 272.831 211.28 271.647 211.441 270.302L211.571 267.971L211.625 267.655L210.75 267.452L210.253 266.625L210.373 265.873C210.527 264.719 210.67 263.685 211.121 262.59C211.378 261.965 212.622 259.841 212.599 259.312C212.582 258.922 212.355 258.571 212.233 258.2C210.577 259.032 208.694 259.842 207.253 261.013C203.646 263.331 199.751 266.239 198.288 270.443L198.14 272.062C198.037 273.272 198.077 274.123 198.555 275.268C201.958 283.423 213.317 289.584 221.141 292.654C239.542 299.874 259.529 301.829 279.066 303.547C309.738 306.245 340.361 306.688 371.103 305.326C372.911 305.246 374.728 305.501 376.539 305.502C380.57 305.504 384.662 305.362 388.688 305.131C402.48 304.34 416.193 302.574 429.917 301.053C444.749 299.408 459.407 297.533 473.941 294.052C480.045 292.59 486.51 290.994 492.258 288.473C496.356 286.675 501.369 283.989 503.901 280.143C504.702 278.926 505.203 277.384 505.727 276.029C505.141 273.285 504.3 271.245 502.405 269.141C498.937 265.288 493.143 262.612 488.552 260.333C476.467 254.333 463.992 249.383 450.809 246.377C441.945 244.356 432.884 243.135 423.929 241.592C419.798 240.88 415.692 240.099 411.531 239.574C410.04 239.386 408.372 238.973 406.875 239.007C405.58 239.035 405.198 239.494 404.31 240.373ZM409.289 31.4939C406.24 32.763 403.237 34.2379 401.893 37.5163C399.834 42.5413 401.262 48.6882 403.51 53.4135C408.882 64.707 421.921 69.3304 428.717 79.3554C430.509 81.9978 431.519 85.0749 432.743 88L433.339 89.0625C437.083 84.2852 439.221 78.8606 438.444 72.7267C437.613 66.1682 431.39 60.4557 427.15 55.7725C424.121 52.4267 421.2 48.9158 418.845 45.0526C417.326 42.5623 416.152 39.8364 415.091 37.125C414.353 35.239 413.815 33.2821 412.528 31.6875C411.374 31.3843 410.474 31.4021 409.289 31.4939ZM400.206 206.812C402.822 210.097 406.53 210.864 410.531 211.317C412.765 211.57 414.774 211.544 417.002 211.214C418.885 210.935 420.201 210.98 421.928 211.792C424.628 213.062 428.465 212.951 431.438 213.234C435.612 213.632 439.763 214.156 443.95 214.461C446.38 214.638 448.214 214.304 450.604 215.104C455.277 216.668 461.251 216.759 466.177 217.384C473.695 218.339 481.388 219.46 488.812 220.96C506.204 224.475 524.631 228.263 540.668 236.098C545.11 238.268 549.422 240.586 553.646 243.155C556.398 244.829 558.996 246.843 561.938 248.164C561.911 245.314 560.783 242.189 558.709 240.188C554.347 235.978 547.544 233.297 542.019 231.052C522.61 223.165 502.498 218.907 481.913 215.499C462.23 212.241 442.315 209.915 422.438 208.244C415.722 207.68 408.328 206.225 401.646 206.573C401.099 206.602 400.718 206.629 400.206 206.812ZM409.304 218.062C409.479 219.119 409.631 219.603 410.625 220.157C412.144 221.003 414.426 221.152 416.125 221.441C425.909 223.105 435.898 223.174 445.743 224.342C455.875 225.544 465.977 226.915 476.062 228.46C489.452 230.51 502.979 233.121 515.873 237.319C523.195 239.703 530.347 242.488 537.375 245.64C540.941 247.239 544.546 249.392 548.253 250.605C549.17 250.905 549.846 250.93 550.793 250.688C547.54 246.273 543.067 244.012 538.275 241.566C517.208 230.814 493.19 227.225 470.058 223.733C454.076 221.32 437.83 219.838 421.719 218.562C418.194 218.282 412.582 217.092 409.304 218.062ZM215.247 256.698L212.233 258.2C212.355 258.571 212.582 258.922 212.599 259.312C212.622 259.841 211.378 261.965 211.121 262.59C210.67 263.685 210.527 264.719 210.373 265.873L210.253 266.625L210.75 267.452L211.625 267.655L211.571 267.971L211.441 270.302C212.685 267.585 214.161 265.413 216.012 263.085C218.891 260.72 221.829 258.431 225.188 256.775C232.535 253.153 240.748 251.342 248.721 249.638C271.503 244.77 294.241 242.887 317.458 241.721C324.793 241.353 332.169 241.698 339.482 240.905C337.417 240.656 335.341 240.137 333.275 240C326.771 239.57 320.204 240.062 313.663 239.635C315.727 238.977 317.774 238.811 319.875 238.367L319.912 237.938L320.56 237.52C319.46 236.73 314.364 237.412 312.735 237.51C298.864 238.347 284.73 239.905 271.022 242.164C252.049 245.292 232.923 248.892 215.247 256.698ZM358.824 237.546C356.821 237.336 355.624 236.32 353.68 236.14C349.856 235.786 346.023 236.109 342.199 236.221C334.956 236.435 327.761 236.706 320.56 237.52L319.912 237.938L319.875 238.367C317.774 238.811 315.727 238.977 313.663 239.635C320.204 240.062 326.771 239.57 333.275 240C335.341 240.137 337.417 240.656 339.482 240.905L346.101 240.905C354.517 241.329 362.895 240.607 371.287 240.811C378.36 240.982 385.49 241.21 392.554 241.616C395.516 241.786 398.501 242.078 401.456 242.352C403.3 242.523 405.123 242.836 406.956 242.475C406.147 241.467 405.44 240.987 404.31 240.373L404.05 240.103C404.303 239.348 404.427 239.229 405.02 238.688L356.168 236.002L358.824 237.546ZM214.064 215.992C212.503 216.12 212.071 215.307 210.518 215.344C206.833 215.431 203.242 216.855 199.684 217.688L199.863 218.252L199.863 218.544C197.536 219.745 194.623 219.291 192.188 220.497C190.851 221.158 189.569 221.877 188.059 221.812L187.5 222.184C186.708 222.187 186.704 222.091 186 222.559C183.927 222.573 181.858 223.004 179.809 222.938L179.389 223.273C178.252 224.152 176.866 224.598 175.498 224.993L174.959 225.157C173.006 225.731 170.839 225.986 168.934 226.688C168.161 226.972 167.738 227.352 166.873 227.577L166.334 227.769C164.954 228.252 164.541 228.195 163.193 227.757C161.458 227.193 158.341 228.764 156.654 229.364C149.94 231.754 142.826 233.797 136.781 237.666C134.344 239.227 131.775 240.891 130.467 243.562L130.246 244.01C129.28 246.055 129.186 248.702 128.844 250.943C132.667 247.84 136.447 244.916 140.671 242.359C146.088 239.079 151.817 236.581 157.498 233.825C159.857 232.68 161.705 231.193 164.25 230.441C166.342 229.823 167.584 228.163 169.688 227.816L174.377 226.925L175.5 226.691L175.899 226.617C176.331 226.508 176.227 226.515 176.603 226.233C177.14 225.83 177.529 225.824 178.125 225.566L178.746 225.232C180.186 224.518 182.163 224.559 183.75 224.066L185.04 223.82C186.467 223.556 187.298 222.437 188.816 222.562L189.375 222.191C190.26 221.66 190.867 221.919 191.816 221.812L192.255 221.675C195.015 220.848 198.323 221.805 201.255 221.021L203.625 220.373C204.949 219.664 205.253 219.371 206.813 219.14L214.125 218.223C214.801 217.713 215.372 217.295 216.165 216.989C219.614 215.658 223.18 215.31 226.875 214.979C228.693 214.816 230.65 215.145 232.353 214.384C236 212.751 240.086 212.999 243.938 212.546C245.281 212.387 246.56 211.818 247.907 211.721C249.959 211.573 251.945 211.963 253.954 211.364L261.618 209.659C260.257 209.623 258.88 209.551 257.528 209.744L239.186 211.716L224.25 214.034C222.689 214.202 221.498 214.331 220.045 214.99C219.486 215.244 219.01 215.549 218.387 215.597L214.064 215.992ZM291.511 205.856L291.134 205.926C288.635 206.36 286.126 206.243 283.617 206.543C279.072 207.085 274.592 207.852 270.066 208.457C267.867 208.751 264.759 208.157 262.875 209.453C266.329 209.352 269.609 208.781 273 208.573C276.566 208.353 280.459 209.783 283.873 208.517C289.48 206.44 296.953 206.981 302.919 206.974C310.222 206.966 317.554 207.053 324.854 206.983C327.043 205.973 332.55 206.477 335.129 206.407C341.679 207.266 348.751 206.598 355.357 206.543C359.885 206.506 364.787 206.891 369.269 206.439C370.175 206.411 371.309 206.595 372.045 206.062C371.105 204.485 369.764 203.216 368.505 201.892C367.356 201.773 366.729 201.879 365.625 202.222C365.511 202.438 365.388 202.706 365.207 202.873C365.148 202.927 364.434 203.403 364.312 203.434C362.958 203.776 360.368 203.428 358.893 203.427C355.407 203.424 351.42 203.855 348.002 203.564C346.047 203.398 343.916 203.604 342.035 203.028C341.366 202.823 341.087 202.712 340.36 202.741C332.407 203.054 324.579 202.765 316.594 203.407C313.083 203.69 309.487 204.011 306 204.405C304.97 204.521 304.009 204.986 302.977 204.725C301.563 204.367 298.475 204.561 297.093 205.114C295.63 205.699 293.089 205.989 291.511 205.856ZM417.891 25.6875C420.722 28.4785 423.772 30.9712 426.678 33.6761C428.669 35.5303 430.453 37.5515 432.51 39.3482C439.665 45.5988 446.78 51.1936 452.375 59.0066C453.238 60.2115 453.662 61.9819 454.159 63.375C456.948 71.2012 457.167 79.2022 455.292 87.2388C454.186 91.984 451.819 96.11 450.49 100.688C450.897 100.413 451.125 100.27 451.412 99.8622C457.597 91.8696 460.222 83.4189 458.964 73.2637C458.282 67.7508 456.234 63.6463 453.634 58.875C448.196 48.8974 440.802 41.1734 431.703 34.388C427.63 31.3505 422.788 27.0639 417.891 25.6875ZM317.72 213.986L317.421 214.162C314.585 215.718 311.147 214.691 308.438 216.086C312.502 216.128 317.302 215.989 321.064 217.642L348 216.566L348.562 216.191C350.281 216.235 352.11 215.839 353.812 215.566C354.536 215.45 355.353 215.603 356.062 215.441C357.952 215.011 359.719 215.069 361.688 215.066L361.877 214.873L360.375 214.309C358.315 213.165 354.893 214.114 352.5 213.49C351.215 213.155 349.927 213.403 348.728 213.006C346.234 212.18 342.357 212.663 339.7 212.728C332.395 212.907 324.958 212.969 317.72 213.986ZM174.605 234.728C173.677 235.737 172.604 236.36 171.375 236.957C168.82 238.198 166.775 236.526 164.25 238.684L163.19 238.688C162.534 239.472 162.358 239.86 161.25 239.897L160.67 239.825C155.404 239.495 144.215 246.655 140.4 250.272L138.843 251.895C145.558 249.544 153.024 247.323 159.248 243.938C159.5 243.801 160.705 243.395 160.882 243.439C161.375 243.039 161.732 242.838 162.329 242.598C164.44 241.751 166.265 240.461 168.316 239.516C172.62 237.534 177.739 235.69 182.25 234.236L181.875 234.036C180.55 234.514 179.111 234.653 177.705 234.576C176.619 234.517 175.68 234.59 174.605 234.728ZM370.033 212.812L369.184 213.188L368.998 213.748C367.154 215.372 364.899 213.982 363.375 215.066C364.486 215.066 365.018 214.95 366 215.441L366.351 215.522C366.878 215.653 367.231 215.899 367.684 216.188L367.875 216.569C372.733 218.042 378.17 217.791 383.216 218.217C385.532 218.272 387.833 218.285 390.127 218.645C384.099 214.211 378.243 211.635 370.558 212.73L370.033 212.812Z"/>
	<path fill="white" transform="scale(0.666667 0.666667)" d="M335.129 206.407C337.709 206.115 340.349 205.657 342.938 205.508C344.164 205.437 345.479 205.58 346.687 205.391C352.543 204.474 360.873 203.496 366.562 205.51L369.269 206.439C364.787 206.891 359.885 206.506 355.357 206.543C348.751 206.598 341.679 207.266 335.129 206.407Z"/>
	<path fill="white" transform="scale(0.666667 0.666667)" d="M214.064 215.992C213.444 215.412 213.108 215.568 212.816 214.688L285 205.316C287.774 205.191 292.888 203.791 295.309 204.938C294.231 205.33 293.181 205.327 292.11 205.663L291.511 205.856L291.134 205.926C288.635 206.36 286.126 206.243 283.617 206.543C279.072 207.085 274.592 207.852 270.066 208.457C267.867 208.751 264.759 208.157 262.875 209.453C266.329 209.352 269.609 208.781 273 208.573C276.566 208.353 280.459 209.783 283.873 208.517C289.48 206.44 296.953 206.981 302.919 206.974C310.222 206.966 317.554 207.053 324.854 206.983C323.52 207.45 321.856 207.316 320.439 207.366C317.704 207.462 314.968 207.549 312.236 207.711C302.339 208.295 292.35 208.95 282.479 209.884C256.022 212.385 229.066 215.405 203.069 221.008C202.402 221.152 201.936 221.168 201.255 221.021L203.625 220.373C204.949 219.664 205.253 219.371 206.813 219.14L214.125 218.223C214.801 217.713 215.372 217.295 216.165 216.989C219.614 215.658 223.18 215.31 226.875 214.979C228.693 214.816 230.65 215.145 232.353 214.384C236 212.751 240.086 212.999 243.938 212.546C245.281 212.387 246.56 211.818 247.907 211.721C249.959 211.573 251.945 211.963 253.954 211.364L261.618 209.659C260.257 209.623 258.88 209.551 257.528 209.744L239.186 211.716L224.25 214.034C222.689 214.202 221.498 214.331 220.045 214.99C219.486 215.244 219.01 215.549 218.387 215.597L214.064 215.992Z"/>
	<path fill="white" transform="scale(0.666667 0.666667)" d="M358.824 237.546L356.168 236.002L405.02 238.688C404.427 239.229 404.303 239.348 404.05 240.103L404.31 240.373C405.44 240.987 406.147 241.467 406.956 242.475C405.123 242.836 403.3 242.523 401.456 242.352C398.501 242.078 395.516 241.786 392.554 241.616C385.49 241.21 378.36 240.982 371.287 240.811C362.895 240.607 354.517 241.329 346.101 240.905C349.045 240.402 352.131 239.656 355.094 239.396C357.655 239.172 360.251 239.442 362.812 239.26C364.61 239.133 366.381 238.6 368.181 238.606C371.351 238.616 374.636 239.202 377.812 239.436C382.515 239.783 387.165 239.808 391.878 239.792C393.974 239.785 396.417 240.014 398.438 239.467L358.824 237.546Z"/>
	<path fill="white" transform="scale(0.666667 0.666667)" d="M215.247 256.698C232.923 248.892 252.049 245.292 271.022 242.164C284.73 239.905 298.864 238.347 312.735 237.51C314.364 237.412 319.46 236.73 320.56 237.52L319.912 237.938L319.875 238.367C317.774 238.811 315.727 238.977 313.663 239.635C320.204 240.062 326.771 239.57 333.275 240C335.341 240.137 337.417 240.656 339.482 240.905C332.169 241.698 324.793 241.353 317.458 241.721C294.241 242.887 271.503 244.77 248.721 249.638C240.748 251.342 232.535 253.153 225.188 256.775C221.829 258.431 218.891 260.72 216.012 263.085C214.161 265.413 212.685 267.585 211.441 270.302L211.571 267.971L211.625 267.655L210.75 267.452L210.253 266.625L210.373 265.873C210.527 264.719 210.67 263.685 211.121 262.59C211.378 261.965 212.622 259.841 212.599 259.312C212.582 258.922 212.355 258.571 212.233 258.2L215.247 256.698ZM215.247 256.698L212.233 258.2C212.355 258.571 212.582 258.922 212.599 259.312C212.622 259.841 211.378 261.965 211.121 262.59C210.67 263.685 210.527 264.719 210.373 265.873L210.253 266.625L210.75 267.452L211.625 267.655L211.571 267.971L211.441 270.302C212.685 267.585 214.161 265.413 216.012 263.085L216.029 262.137C217.979 259.69 219.906 258.018 222.488 256.277C220.2 256.438 217.891 256.956 215.607 256.737L215.247 256.698Z"/>
	<path fill="white" fill-opacity="0.86666667" transform="scale(0.666667 0.666667)" d="M215.247 256.698L215.607 256.737C217.891 256.956 220.2 256.438 222.488 256.277C219.906 258.018 217.979 259.69 216.029 262.137L216.012 263.085C214.161 265.413 212.685 267.585 211.441 270.302L211.571 267.971L211.625 267.655L210.75 267.452L210.253 266.625L210.373 265.873C210.527 264.719 210.67 263.685 211.121 262.59C211.378 261.965 212.622 259.841 212.599 259.312C212.582 258.922 212.355 258.571 212.233 258.2L215.247 256.698Z"/>
	<path fill="white" transform="scale(0.666667 0.666667)" d="M174.605 234.728L174.48 234.64L174.745 234.32C185.96 230.46 197.994 227.982 209.627 225.769C237.378 220.49 265.509 217.694 293.625 215.244C298.58 214.813 303.515 214.461 308.477 214.128C311.493 213.926 314.728 213.456 317.72 213.986L317.421 214.162C314.585 215.718 311.147 214.691 308.438 216.086C312.502 216.128 317.302 215.989 321.064 217.642C316.165 219.039 309.775 218.481 304.635 218.812C297.333 219.284 289.996 219.919 282.703 220.55C257.357 222.741 231.893 225.634 206.914 230.517C198.898 232.083 190.839 233.857 183 236.16C179.365 237.228 175.688 238.369 172.124 239.651C169.45 240.613 166.824 241.703 164.143 242.646C163.17 242.989 161.92 243.579 160.882 243.439C161.375 243.039 161.732 242.838 162.329 242.598C164.44 241.751 166.265 240.461 168.316 239.516C172.62 237.534 177.739 235.69 182.25 234.236L181.875 234.036C180.55 234.514 179.111 234.653 177.705 234.576C176.619 234.517 175.68 234.59 174.605 234.728Z"/>
	<defs>
		<linearGradient id="gradient_0" gradientUnits="userSpaceOnUse" x1="207.188" y1="271.68799" x2="203.511" y2="267.14499">
			<stop offset="0" stop-color="white" stop-opacity="0.47843137"/>
			<stop offset="1" stop-color="white" stop-opacity="0.57254905"/>
		</linearGradient>
	</defs>
	<path fill="url(#gradient_0)" transform="scale(0.666667 0.666667)" d="M207.253 261.013C208.694 259.842 210.577 259.032 212.233 258.2C212.355 258.571 212.582 258.922 212.599 259.312C212.622 259.841 211.378 261.965 211.121 262.59C210.67 263.685 210.527 264.719 210.373 265.873L210.253 266.625L210.75 267.452L211.625 267.655L211.571 267.971L211.441 270.302C211.28 271.647 211.104 272.831 211.374 274.169L210.968 274.342C210.053 274.794 209.713 275.413 209.228 276.259C208.7 277.178 208.239 277.507 207.351 278.062C205.338 278.188 203.739 277.633 201.938 276.778C201.755 276.395 201.502 275.973 201.398 275.564C200.916 274.122 200.858 272.356 200.438 270.84L199.688 270.592L199.323 269.812L198.288 270.443C199.751 266.239 203.646 263.331 207.253 261.013ZM198.288 270.443L199.323 269.812L199.688 270.592L200.438 270.84C200.858 272.356 200.916 274.122 201.398 275.564C202.7 273.654 200.707 270.484 202.312 268.161L204.188 267.934C204.785 267.356 204.988 267.15 205.197 266.326C205.373 265.63 205.569 265.387 206.08 264.879C206.457 264.503 206.78 264.195 207.068 263.742C207.846 262.519 207.573 262.314 207.253 261.013C203.646 263.331 199.751 266.239 198.288 270.443Z"/>
	<path fill="white" fill-opacity="0.49019608" transform="scale(0.666667 0.666667)" d="M198.288 270.443C199.751 266.239 203.646 263.331 207.253 261.013C207.573 262.314 207.846 262.519 207.068 263.742C206.78 264.195 206.457 264.503 206.08 264.879C205.569 265.387 205.373 265.63 205.197 266.326C204.988 267.15 204.785 267.356 204.188 267.934L202.312 268.161C200.707 270.484 202.7 273.654 201.398 275.564C200.916 274.122 200.858 272.356 200.438 270.84L199.688 270.592L199.323 269.812L198.288 270.443Z"/>
	<path fill="#1F1F1F" transform="scale(0.666667 0.666667)" d="M339.482 240.905L346.101 240.905C354.517 241.329 362.895 240.607 371.287 240.811C378.36 240.982 385.49 241.21 392.554 241.616C395.516 241.786 398.501 242.078 401.456 242.352C403.3 242.523 405.123 242.836 406.956 242.475L407.623 242.688C411.566 243.889 416.061 243.691 420.125 244.312C424.485 244.979 428.838 245.923 433.185 246.689C447.279 249.173 475.206 254.402 482.648 268.414C483.625 270.253 484.705 272.734 483.984 274.813C482.36 279.493 474.881 283.418 470.563 285.22C460.419 289.454 449.352 291.286 438.593 293.274C393.864 301.539 348.876 302.4 303.595 299.599C282.254 298.279 261.208 296.283 240.556 290.458C235.318 288.98 229.833 287.486 224.806 285.391C219.3 283.098 213.838 279.902 211.374 274.169C211.104 272.831 211.28 271.647 211.441 270.302C212.685 267.585 214.161 265.413 216.012 263.085C218.891 260.72 221.829 258.431 225.188 256.775C232.535 253.153 240.748 251.342 248.721 249.638C271.503 244.77 294.241 242.887 317.458 241.721C324.793 241.353 332.169 241.698 339.482 240.905ZM320.19 246.821L315.538 248.48C320.427 250.997 325.234 250.71 330.567 251.236C336.128 251.785 341.671 252.381 347.25 252.754C351.749 253.054 356.834 252.897 361.08 254.61C362.593 255.221 363.465 255.995 364.385 257.317C364.506 258.757 364.444 259.55 363.468 260.678C356.584 268.632 338.048 266.047 328.5 267.996L327.799 268.136C326.441 268.418 325.378 268.791 324.188 269.501L323.77 270.283C326.303 273.327 333.962 273.7 337.704 274.045C345.135 274.73 352.562 273.555 359.797 271.861C365.695 270.48 371.923 268.601 376.668 264.65C379.19 262.551 379.247 261.791 379.509 258.611L379.697 256.215L382.488 255.468C384.182 254.932 386.091 254.526 387.748 255.377C388.766 255.9 389.788 256.151 390.375 257.153C392.998 258.602 397.602 260.861 398.413 263.964C398.689 265.018 398.593 266.256 397.961 267.168C396.659 269.046 394.195 270.376 392.194 271.411C382.713 276.317 370.777 278.294 360.244 279.637C348.857 281.09 336.955 281.042 325.5 280.542C312.161 279.96 297.657 278.919 285.343 273.269L284.127 272.305C284.266 271.529 284.074 271.773 284.723 271.336C286.058 270.438 287.972 270.283 289.538 270.063C292.434 269.655 295.227 269.339 298.076 268.637C295.493 266.977 293.706 266.22 290.625 265.791L290.069 265.708C282.771 264.742 274.679 267.287 268.725 271.386C272.566 274.628 276.14 277.343 280.727 279.49C286.887 282.373 293.577 283.969 300.211 285.305C318.383 288.964 337.598 289.577 356.048 288.021C363.86 287.362 371.61 286.33 379.371 285.251C389.397 283.857 401.222 282.37 410.173 277.341C412.658 275.944 414.532 274.09 416.347 271.93L417.534 270.501C412.64 262.371 406.112 257.705 396.879 255.453L386.564 253.596C381.024 252.19 375.108 251.536 369.458 250.664C356.632 248.687 343.694 246.786 330.694 246.679C327.27 246.651 323.59 246.462 320.19 246.821Z"/>
</svg>
