<?xml version="1.0" encoding="utf-8" ?>
<svg xmlns="http://www.w3.org/2000/svg" xmlns:xlink="http://www.w3.org/1999/xlink" width="512" height="512">
	<path fill="#CDCBCC" fill-opacity="0.96862745" transform="scale(0.666667 0.666667)" d="M527.479 282.114C527.78 282.939 527.785 282.885 527.438 283.691C528.515 283.684 528.198 283.011 529.405 283.25C526.428 286.929 521.065 290.665 516.798 292.769L517.316 290.812C516.622 290.968 515.905 291.014 515.199 291.091C519.538 288.335 523.665 285.592 527.479 282.114Z"/>
	<path fill="#969395" transform="scale(0.666667 0.666667)" d="M536.318 267.37C537.27 268.982 537.191 272.452 536.784 274.266L536.678 274.45C534.912 277.027 533.081 279.762 530.856 281.97C530.585 282.238 529.781 283.171 529.405 283.25C528.198 283.011 528.515 283.684 527.438 283.691C527.785 282.885 527.78 282.939 527.479 282.114C527.706 281.151 530.615 278.415 531.368 277.405C533.782 274.166 535.213 271.284 536.318 267.37Z"/>
	<path fill="#C3C1C2" transform="scale(0.666667 0.666667)" d="M278.103 516.907C275.695 508.036 274.417 498.691 271.755 489.938C271.219 488.176 270.098 486.458 269.414 484.707C268.081 481.295 267.229 477.558 266.516 473.963C265.503 468.861 266.141 463.603 265.182 458.53C264.378 454.276 262.522 450.556 261.393 446.472C260.339 442.66 260.445 437.718 260.262 433.751C261.835 437.49 261.947 442.114 262.784 446.088C263.414 449.08 264.467 451.975 265.066 454.975C266.486 462.092 267.513 469.271 268.984 476.394C270.295 482.748 272.167 489.031 273.749 495.33C275.506 502.327 276.995 509.439 278.48 516.504L278.103 516.907Z"/>
	<path fill="#CDCBCC" fill-opacity="0.98823529" transform="scale(0.666667 0.666667)" d="M278.48 516.504C279.76 520.851 280.637 525.264 281.843 529.623C286.116 545.065 290.369 560.489 295.325 575.731C296.639 579.771 297.715 583.877 299.212 587.862C300.506 591.307 302.271 594.546 303.685 597.938C305.468 602.218 306.355 606.672 309.291 610.312C310.354 611.631 310.795 612.997 311.222 614.613C309.723 613.369 308.216 612.166 306.655 611.001C306.316 610.748 305.319 610.168 305.09 609.837C304.886 609.54 304.776 608.028 304.706 607.626C304.201 604.71 303.984 601.364 303.108 598.551C302.363 596.157 300.537 594.193 299.288 592.062C298.358 590.477 297.697 588.614 297.112 586.875C295.893 583.255 295.64 579.411 294.536 575.77C292.309 568.425 289.613 561.176 287.46 553.81C286.383 550.126 285.643 546.336 284.658 542.625C282.38 534.049 280.073 525.564 278.103 516.907L278.48 516.504Z"/>
	<path fill="#1B1A1A" transform="scale(0.666667 0.666667)" d="M436.836 143.812C437.289 143.677 437.717 143.677 438.188 143.65C442.09 146.159 444.398 151.828 446.875 155.702C448.156 157.704 449.826 159.59 450.726 161.788L450.188 162.552C448.876 162.698 447.722 162.702 446.438 162.342C443.563 161.538 441.098 158.332 439.679 155.824C437.74 152.398 435.732 147.741 436.836 143.812Z"/>
	<path fill="#C3C1C2" fill-opacity="0.98039216" transform="scale(0.666667 0.666667)" d="M515.199 291.091C515.905 291.014 516.622 290.968 517.316 290.812L516.798 292.769L516.768 292.829C511.86 295.74 506.319 297.848 500.969 299.812C490.101 303.802 478.941 306.85 467.48 308.634C461.581 309.552 455.534 309.908 449.588 310.41C446.441 310.677 442.375 311.733 439.312 311.082C448.013 310.068 456.437 308.705 465.066 307.27C468.223 306.744 471.439 306.473 474.575 305.885C482.141 304.468 490.248 302.079 497.468 299.407C503.597 297.139 509.454 294.181 515.199 291.091Z"/>
	<path fill="#1B1A1A" transform="scale(0.666667 0.666667)" d="M465.99 121.688C466.81 121.609 466.548 121.577 467.378 121.734C468.782 122.001 469.745 122.801 470.541 123.938C471.784 130.769 470.645 139.55 468.562 146.138L468.163 146.404L467.438 146.24C466.5 144.5 465.568 142.815 465.033 140.898L464.874 140.297C463.592 135.634 463.727 129.829 464.322 125.043C464.513 123.5 464.742 122.659 465.99 121.688Z"/>
	<path fill="#1B1A1A" transform="scale(0.666667 0.666667)" d="M535.866 251.438L536.252 251.625C536.393 256.004 535.032 259.753 532.089 263.039C525.976 269.864 516.089 274.774 507.766 278.331C490.039 285.908 471.375 290.931 452.271 293.534C438.773 295.374 425.162 295.772 411.562 296.222L411.268 296.052L411.375 295.581L468.602 286.069C483.711 282.642 498.715 278.531 512.625 271.553C517.527 269.094 522.534 266.399 526.693 262.774C530.476 259.478 533.208 255.661 535.866 251.438Z"/>
	<path fill="#1B1A1A" transform="scale(0.666667 0.666667)" d="M536.318 267.37C536.32 266.247 536.333 265.454 536.812 264.404C537.823 264.147 539.793 264.834 540.683 265.521C541.892 266.456 542.16 270.057 542.232 271.623C542.759 283.143 540.935 295.338 538.741 306.602C537.756 311.659 537.56 317.162 533.917 321.177C530.37 325.086 525.15 328.168 520.559 330.678C503.234 340.147 483.331 344.874 464.094 348.649C445.662 352.267 427.245 354.891 408.428 355.365C378.191 356.125 348.107 355.278 318 352.496C301.741 350.993 285.309 349.289 269.358 345.685C260.874 343.768 252.677 341.125 244.44 338.371C236.225 335.624 227.292 333.029 220.912 326.894C214.958 321.169 213.157 312.399 211.613 304.602C209.572 294.294 208.514 284.281 208.417 273.779C208.368 268.516 207.901 264.09 210.614 259.405C211.431 262.584 212.64 266.139 212.951 269.382C213.32 273.237 212.83 277.334 213.058 281.25C213.536 289.488 214.945 297.747 216.416 305.855C216.974 308.93 217.484 313.611 219.085 316.285C220.442 318.55 223.758 320.577 225.996 321.913C232.948 326.063 240.795 329.017 248.411 331.687C270.375 339.39 293.108 343.255 316.125 346.207C348.425 350.351 381.702 351.714 414.216 349.574C438.388 347.983 462.918 344.132 486.381 338.067C499.249 334.74 513.599 329.959 524.757 322.56C527.485 320.751 530.165 319.052 531.857 316.144C533.154 313.916 533.476 310.901 533.982 308.395C536.119 297.794 538.058 285.257 536.678 274.45L536.784 274.266C537.191 272.452 537.27 268.982 536.318 267.37Z"/>
	<path fill="#1B1A1A" transform="scale(0.666667 0.666667)" d="M223.481 333.562C224.184 333.485 224.215 333.613 224.812 333.932C227.372 341.715 228.189 349.518 229.728 357.486C232.83 373.545 235.665 389.654 238.558 405.75C246.66 450.812 254.712 495.895 263.676 540.797C266.856 556.724 269.618 572.862 273.464 588.641C275.865 598.49 280.43 604.329 289.184 609.566C294.693 612.86 301.993 615.912 308.289 617.331C311.834 618.13 315.468 618.431 319.022 619.275C357.877 628.505 400.017 631.976 439.153 621.879C449.981 619.085 460.404 614.742 470.57 610.135C471.11 609.891 473.687 608.939 473.881 608.646C473.942 608.554 473.936 607.201 473.943 607.066C474.033 605.23 474.175 603.391 474.342 601.56C474.892 595.536 475.959 589.414 477.068 583.465C486.93 530.562 497.87 477.832 508.05 424.989C511.256 408.343 514.391 391.678 517.312 374.977C518.989 365.394 520.273 355.513 522.481 346.05C523.352 342.315 524.574 339.219 526.518 335.916C526.507 350.463 523.525 364.772 520.926 379.026C518.547 392.072 516.151 405.124 513.843 418.184C505.872 462.486 496.249 506.455 487.629 550.631C485.57 561.182 483.341 571.791 481.499 582.375C479.923 591.433 479.143 600.939 476.115 609.632C476.79 610.106 476.501 609.947 477.197 610.278C478.841 611.061 480.558 611.765 481.312 613.555C481.764 614.627 481.438 616.302 480.834 617.25C479.526 619.301 477.278 620.771 475.167 621.868C467.43 625.892 457.553 627.488 449.032 628.964C428.494 632.524 407.271 634.128 386.438 634.434C371.737 634.65 356.884 634.654 342.188 634.091C323.477 633.375 304.715 631.582 286.048 630.145C265.92 628.596 202.963 625.86 188.692 615.294C187.424 614.355 186.311 613.093 186.22 611.438C186.159 610.326 186.567 609.469 187.312 608.69C191.12 604.707 197.649 602.798 202.839 601.376C214.759 598.109 226.906 596.5 239.184 595.309C248.622 594.394 258.075 593.564 267.564 593.452C266.092 582.928 263.435 572.433 261.607 561.938C259.289 548.639 257.206 535.303 254.925 522C252.81 509.661 250.285 497.392 248.139 485.062C242.757 454.149 237.55 423.208 232.444 392.25C230.465 380.247 228.455 368.241 226.396 356.25C225.286 349.782 223.909 343.249 223.183 336.732C223.053 335.567 222.858 334.642 223.481 333.562Z"/>
	<path fill="#1B1A1A" transform="scale(0.666667 0.666667)" d="M345.136 200.465L346.592 200.347C351.376 200.033 356.325 200.242 361.125 200.23C372.166 200.202 382.98 200.448 393.999 201.091C424.273 202.858 454.404 206.255 483.37 215.681C497.97 220.432 512.694 226.751 524.306 237.03C526.916 239.34 529.492 241.76 529.635 245.438C529.731 247.91 529.114 249.07 527.438 250.835C523.959 254.498 519.37 256.987 514.953 259.335C490.511 272.326 462.303 276.906 435.188 280.786C421.744 282.71 408.026 284.185 394.44 284.607C354.321 285.853 313.291 283.659 274.125 274.531C253.815 269.798 231.566 263.285 216.003 248.672C216.288 249.913 216.996 251.037 217.587 252.163C220.829 258.037 227.212 261.682 232.887 264.842C244.872 271.517 257.794 275.949 270.877 279.917C288.313 285.205 305.945 289.301 323.916 292.317C335.472 294.256 347.395 295.382 359.062 296.548C362.639 296.906 366.35 297.155 369.938 297.269C373.944 297.397 377.991 297.271 382.002 297.272C383.938 297.272 386.255 297.008 388.101 297.593L379.136 298.133C368.108 298.478 356.529 298.78 345.541 297.926C317.146 295.721 289.799 289.934 262.775 281.001C246.761 275.708 229.917 269.443 217.483 257.602C215.071 255.305 213.295 252.375 213.295 248.961C213.295 242.698 217.038 237.851 221.212 233.625C230.278 224.446 243.698 219.17 255.75 215.244C266.303 211.806 277.013 208.716 287.932 206.645C306.74 203.078 326.03 201.347 345.136 200.465ZM293.91 263.91L352.093 260.573C357.073 259.797 362.662 260.251 367.711 260.242C379.547 260.221 391.3 260.447 403.125 260.745C426.064 261.422 448.857 263.276 471.757 264.523C477.292 264.824 483.37 266.521 488.853 265.851C496.701 264.892 506.182 260.391 512.597 255.855C511.651 254.155 509.437 252.42 507.879 251.242C499.82 245.143 490.29 241.997 480.68 239.259C436.02 226.532 389.399 225.098 343.309 227.281C318.761 228.444 294.069 230.638 270.055 236.053C256.672 239.07 244.083 243.258 231.354 248.266C234.354 244.84 237.152 242.237 241.159 240.032C244.729 238.068 248.923 236.743 252.786 235.459C267.266 230.647 282.297 228.457 297.375 226.497C309.46 224.927 321.529 223.529 333.695 222.713C370.561 220.241 407.621 221.286 444.174 226.797C445.562 227.006 449.371 227.84 450.249 226.883L449.769 226.581C449.089 226.138 449.344 226.335 448.776 225.75C451.255 224.781 457.498 226.154 460.27 226.61C477.813 229.494 494.544 233.413 510.94 240.539C514.254 241.98 517.241 243.897 520.435 245.563C521.586 246.163 522.913 246.969 524.25 246.787C524.692 246.028 524.687 245.228 524.414 244.366C522.405 238.003 501.981 227.886 495.995 225.409C485.133 220.915 473.844 217.764 462.429 215.048C436.726 208.932 410.535 206.058 384.169 205.139C357.065 204.194 330.106 205.238 303.26 209.226C283.627 212.143 264.003 216.544 245.655 224.266C238.022 227.478 230.522 231.368 224.707 237.38C223.299 238.836 221.356 240.957 220.582 242.812C220.101 243.965 220.081 245.466 220.688 246.574C225.781 255.874 257.24 266.873 267.681 269.98L268.111 269.714C275.381 265.322 285.646 264.84 293.91 263.91ZM352.093 260.573L293.91 263.91L294.369 265.688C294.243 265.831 293.229 265.938 293.027 265.975C286.079 267.223 279.431 268.167 272.716 270.464C276.641 271.883 280.531 272.238 284.686 272.215C295.435 272.156 306.323 270.583 317.062 269.886C336.437 268.629 355.828 267.711 375.188 266.32C376.716 266.21 379.243 266.554 380.625 266.066C382.527 265.395 383.063 265.268 385.125 265.316C386.206 266.034 388.888 265.697 390.257 265.755C402.062 266.263 414.193 266.013 425.998 265.361L425.627 265.035L405.229 262.696L404.695 262.589L404.252 261.228L403.213 261.063L403.125 260.745C391.3 260.447 379.547 260.221 367.711 260.242C362.662 260.251 357.073 259.797 352.093 260.573Z"/>
	<path fill="white" fill-opacity="0.96862745" transform="scale(0.666667 0.666667)" d="M364.773 262.212C366.547 261.514 369.717 261.896 371.705 261.89C379.682 261.867 387.701 262.359 395.661 262.186L395.663 262.457L394.686 262.658C395.56 263.341 396.343 263.315 397.403 263.384L397.858 263.409C395.649 264.183 392.019 264.041 389.625 264.119C384.278 264.292 378.786 264.136 373.442 263.865C371.197 263.751 368.529 263.823 366.375 263.258C365.693 263.08 365.277 262.68 364.773 262.212Z"/>
	<path fill="#110F10" transform="scale(0.666667 0.666667)" d="M352.093 260.573C357.073 259.797 362.662 260.251 367.711 260.242C379.547 260.221 391.3 260.447 403.125 260.745L403.213 261.063L404.252 261.228L404.695 262.589L395.663 262.457L395.661 262.186C387.701 262.359 379.682 261.867 371.705 261.89C369.717 261.896 366.547 261.514 364.773 262.212L353.124 261.806C355.705 261.316 358.376 262.214 360.64 260.809L352.515 260.61L352.093 260.573Z"/>
	<path fill="#030203" transform="scale(0.666667 0.666667)" d="M395.661 262.186L395.138 261.372L395.438 260.993L403.213 261.063L404.252 261.228L404.695 262.589L395.663 262.457L395.661 262.186Z"/>
	<path fill="#030203" transform="scale(0.666667 0.666667)" d="M293.91 263.91L352.093 260.573L352.515 260.61L360.64 260.809C358.376 262.214 355.705 261.316 353.124 261.806L294.369 265.688L293.91 263.91Z"/>
</svg>
