<?xml version="1.0" encoding="utf-8" ?>
<svg xmlns="http://www.w3.org/2000/svg" xmlns:xlink="http://www.w3.org/1999/xlink" width="512" height="512">
	<path transform="scale(0.5 0.5)" d="M497.723 54.7763L498.654 54.7354C514.433 54.0747 530.214 54.6626 545.958 55.7423C564.176 56.9916 582.402 58.9854 600.34 62.4581C664.124 74.8057 725.212 102.065 777.835 140.004C792.104 150.29 806.159 161.198 819.097 173.124C895.624 243.667 947.693 337.169 963.944 440.259C966.856 458.732 968.086 477.413 968.846 496.081C973.638 613.827 930.845 733.824 850.871 820.65C790.049 886.683 709.542 935.911 621.911 956.611C590.169 964.109 558.125 967.63 525.588 968.969C484.758 969.725 443.993 966.114 404.166 956.83C354.945 945.356 306.616 924.712 264.141 897.347C241.961 883.057 221.435 866.593 201.97 848.817C113.431 767.96 60.4616 653.181 55.1932 533.523C54.2315 511.68 54.4434 489.682 56.5429 467.908C64.0751 389.791 92.322 314.278 137.6 250.25C147.838 235.771 158.495 221.695 170.506 208.625C195.153 181.808 222.938 156.721 252.709 135.725C261.258 129.695 270.363 124.189 279.351 118.845C287.533 113.98 295.636 109.028 304.102 104.659C349.338 81.3121 398.243 65.4577 448.661 58.4716C464.89 56.2228 481.363 55.478 497.723 54.7763ZM492.4 119.292C388.596 124.119 290.695 172.469 220.919 248.978C199.447 272.523 182.209 298.092 167.003 326C148.151 360.601 134.313 397.656 126.625 436.359C120.365 467.877 118.41 500.839 119.938 532.913C123.082 598.948 143.874 665.033 179.093 721C184.651 729.832 190.899 738.159 197.09 746.546C211.223 765.691 226.558 783.751 244.238 799.755C266.67 820.059 291.288 838.944 317.551 854.05C382.13 891.192 457.569 906.924 531.624 903.966C557.262 902.645 582.858 899.531 607.835 893.453C684.345 874.834 752.936 832.063 805.539 773.816C842.675 732.694 870.903 682.777 887.255 629.795C900.973 585.345 906.455 537.2 904.08 490.784C898.77 386.998 850.019 288.022 772.975 218.669C737.093 186.368 693.755 159.342 648.396 142.658C599.967 124.844 546.255 116.545 494.677 119.155L492.4 119.292Z"/>
	<path transform="scale(0.5 0.5)" d="M487.603 217.75C490.143 217.134 493.484 217.505 496.114 217.529C501.552 217.579 506.989 217.634 512.426 217.675C528.445 217.795 544.469 217.655 560.487 217.572L560.521 675.233L677.5 675.322L678.024 748.851L346.75 748.983C346.536 748.723 346.225 748.518 346.109 748.202C345.829 747.439 346.089 744.995 346.085 744.094C346.061 739.286 346.048 734.478 346.068 729.67C346.143 711.42 345.883 693.145 346.155 674.9C371.589 675.167 396.931 676.257 422.371 675.196C430.172 674.87 438.253 674.839 445.968 673.593C452.299 672.572 463.304 670.024 467.938 665.423C469.917 663.458 471.356 660.616 472.526 658.094C476.68 649.149 478.184 638.135 479.305 628.377C483.057 595.706 481.519 561.967 481.515 529.115C481.508 470.951 480.868 412.705 481.678 354.55C463.397 369.046 443.024 380.824 421.324 389.419C397.311 398.931 371.783 404.894 346.468 409.769L347.036 336.386C380.718 329.535 415.265 315.225 442.054 293.467C459.739 279.102 475.778 260.721 483.326 238.885C485.739 231.904 486.852 225.076 487.603 217.75Z"/>
</svg>
