<?xml version="1.0" encoding="utf-8" ?>
<svg xmlns="http://www.w3.org/2000/svg" xmlns:xlink="http://www.w3.org/1999/xlink" width="512" height="512">
	<path transform="scale(0.5 0.5)" d="M418.492 47.2538C448.199 46.6886 477.935 47.1392 507.646 47.229C534.526 47.3103 561.403 47.0103 588.283 46.9929C604.987 46.9821 621.705 47.379 638.404 47.2291C653.853 47.0905 670.056 46.0942 685.41 47.7758C695.483 48.879 705.311 52.0218 714.328 56.6033C732.561 65.8675 747.356 82.4086 755.695 100.953C760.121 110.794 763.292 121.342 767.122 131.436C771.736 143.599 777.179 155.651 781.19 168.011C788.465 167.97 797.916 166.883 804.828 168.972C811.309 170.93 816.198 175.29 819.218 181.285C820.548 183.925 821.428 186.998 821.679 189.94C822.051 194.3 821.646 198.901 821.587 203.28C821.489 210.704 821.505 218.133 821.498 225.558C821.482 240.832 822.496 256.461 821.603 271.694C821.476 273.871 821.127 275.924 820.461 278C818.488 284.151 814.555 288.902 808.747 291.82L808.096 292.14C806.088 293.151 804.245 293.841 802.012 294.221C796.355 295.185 778.862 294.933 778.576 295.401C778.467 295.579 778.358 297.173 778.319 297.497C777.977 300.338 777.782 303.193 777.438 306.031C774.727 328.43 772.198 350.85 769.5 373.25C760.679 446.48 752.198 519.757 743.499 593C740.784 615.865 737.472 638.664 734.537 661.5C730.362 693.969 726.427 726.498 722.521 759C717.736 798.811 713.234 838.664 708.256 878.453C706.97 888.725 706.067 899.036 704.877 909.316C704.287 914.41 703.903 919.622 702.762 924.625C699.848 937.4 693.923 949.279 684.6 958.6C676.88 966.316 667.843 971.505 657.25 974.255C650.093 976.113 642.924 976.208 635.58 976.357C625.766 976.555 615.94 976.431 606.125 976.379C551.823 975.52 497.386 976.164 443.072 976.225C428.867 976.24 414.662 976.303 400.457 976.361C391.228 976.399 381.456 977 372.314 975.657C361.962 974.136 352.776 970.336 344.519 963.85C333.827 955.449 325.941 944.033 322.462 930.877C320.484 923.4 319.79 915.457 318.917 907.791C317.804 898.024 316.69 888.26 315.516 878.5C310.777 839.076 306.199 799.622 301.313 760.219C295.171 710.696 289.389 661.138 283.325 611.609C279.601 581.189 275.44 550.811 271.935 520.367C266.683 474.744 261.165 429.135 256.017 383.5C252.686 353.97 249.876 324.342 246.295 294.847C238.678 294.883 230.421 295.697 222.908 294.649L222 294.517C217.63 293.927 213.702 291.958 210.525 288.894C205.559 284.104 202.113 277.494 201.994 270.5C201.673 251.715 202.1 232.845 202.17 214.053C202.19 208.641 202.225 203.229 202.224 197.817C202.223 194.407 201.948 190.711 202.551 187.358C203.468 182.259 206.115 177.526 209.75 173.878C217.956 165.645 232.254 167.981 242.975 168.044C246.075 157.771 250.792 147.65 254.56 137.567C257.471 129.777 260.417 122.007 263.252 114.189C265.891 106.909 268.384 99.5682 272.206 92.7993C276.166 85.7858 281.602 79.1474 287.28 73.455C301.606 59.0921 320.693 49.4592 341 47.6057C351.189 46.6757 361.79 47.2699 372.044 47.2879C387.526 47.3151 403.009 47.2778 418.492 47.2538ZM317.312 448.25C317.192 451.726 318.213 455.906 318.693 459.412C319.597 466.015 320.342 472.631 321.263 479.234C322.504 488.128 323.336 497.097 324.515 506C326.202 518.73 328.113 531.515 329.506 544.277C335.488 599.08 342.711 653.775 349.327 708.504C352.74 736.739 356.002 765.001 359.322 793.25C361.207 809.284 362.65 825.549 365.056 841.499L658.077 841.928L663.015 800.112L706.633 448.163C674.123 447.178 641.332 447.998 608.79 448.009C547.797 448.028 486.804 448.028 425.811 448.039C398.673 448.045 371.532 447.962 344.394 448.069C338.623 448.092 332.852 448.172 327.081 448.134C324.055 448.114 320.257 447.641 317.312 448.25ZM344.662 103.754C339.118 104.134 334.257 105.64 329.662 108.843C319.015 116.264 315.764 127.105 311.468 138.692C307.854 148.442 304.626 158.653 300.528 168.177L680.125 168.228L723.667 168.503C719.849 159.617 716.511 150.573 713.267 141.464C710.371 133.331 707.901 123.673 702.986 116.526C699.374 111.273 694.449 107.302 688.559 104.873C687.357 104.378 686.276 104.18 685 103.995L684.089 103.855C679.7 103.21 675.077 103.545 670.648 103.635C664.642 103.758 658.64 103.817 652.633 103.831C628.886 103.886 605.14 103.796 581.393 103.728C523.508 103.562 465.608 103.408 407.723 103.722C386.748 103.836 365.613 103.077 344.662 103.754ZM301.338 218.246L254.947 218.847L254.967 247.233L723.75 247.466L769.027 247.257L769.03 218.536L301.338 218.246Z"/>
	<path transform="scale(0.5 0.5)" d="M508.011 510.577C510.422 510.493 512.95 510.284 515.319 510.823C522.045 512.353 528.362 517.066 531.978 522.94L532.364 523.588C536.208 529.97 535.193 537.24 536.216 544.328C536.934 549.305 538.548 554.592 540.525 559.217C544.466 568.437 550.518 576.227 555.853 584.63C565.367 599.614 572.5 614.622 577.976 631.5C582.4 645.135 584.075 659.085 584.104 673.373C584.115 678.598 584.249 683.948 583.745 689.152C582.389 703.156 577.933 717.635 571.537 730.169C560.03 752.719 541.285 771.612 516.756 779.567C511.472 780.644 505.89 780.452 501.05 777.804L500.5 777.494C497.201 775.659 494.046 773.096 492.189 769.741L491.852 769.103C488.421 762.742 489.045 755.035 488.447 748.012C487.882 741.379 486.762 734.679 484.301 728.46C480.677 719.303 474.686 711.357 469.304 703.194C459.716 688.65 451.605 673.429 446.843 656.59C437.428 623.296 438.627 586.74 455.92 556.142C464.098 541.671 474.821 530.752 488.275 521.1C494.668 516.513 500.364 512.73 508.011 510.577ZM496.998 593.25C495.78 595.782 495.769 598.315 495.42 601.039C493.63 615.046 495 630.07 499.68 643.405C502.475 651.371 506.08 659.396 510.557 666.561C513.783 671.723 517.708 676.38 520.973 681.5C524.749 687.421 527.034 693.185 529.25 699.808C531.818 696.695 531.367 674.122 530.941 669.552C529.818 657.487 527.023 645.612 521.834 634.618C516.823 624.002 509.896 614.672 503.716 604.754C501.42 601.067 499.644 597.167 497.554 593.375L496.998 593.25Z"/>
</svg>
